<?xml version="1.0" encoding="UTF-8" standalone="no"?>
<!-- Created with Inkscape (http://www.inkscape.org/) -->

<svg
   width="290mm"
   height="109.99999mm"
   viewBox="0 0 290 109.99999"
   version="1.1"
   id="svg5"
   sodipodi:docname="interfaces_b.svg"
   inkscape:version="1.2 (dc2aeda, 2022-05-15)"
   xmlns:inkscape="http://www.inkscape.org/namespaces/inkscape"
   xmlns:sodipodi="http://sodipodi.sourceforge.net/DTD/sodipodi-0.dtd"
   xmlns="http://www.w3.org/2000/svg"
   xmlns:svg="http://www.w3.org/2000/svg">
  <sodipodi:namedview
     id="namedview535"
     pagecolor="#ffffff"
     bordercolor="#000000"
     borderopacity="0.25"
     inkscape:showpageshadow="2"
     inkscape:pageopacity="0.0"
     inkscape:pagecheckerboard="0"
     inkscape:deskcolor="#d1d1d1"
     inkscape:document-units="mm"
     showgrid="false"
     inkscape:zoom="1.1787644"
     inkscape:cx="548.0315"
     inkscape:cy="207.84476"
     inkscape:window-width="1920"
     inkscape:window-height="1024"
     inkscape:window-x="0"
     inkscape:window-y="0"
     inkscape:window-maximized="1"
     inkscape:current-layer="svg5" />
  <defs
     id="defs2" />
  <g
     id="layer1">
    <g
       id="g534"
       transform="translate(5.2819712,-24.566179)">
      <g
         aria-label="User   Human Body   Reality"
         id="text186"
         style="font-size:22.5778px;font-family:FreeSerif;-inkscape-font-specification:FreeSerif;text-align:center;text-anchor:middle;stroke:#b3b3b3;stroke-width:0.3;stroke-linecap:round;stroke-linejoin:round;paint-order:fill markers stroke">
        <path
           d="m 15.898357,80.507736 q 0,2.25778 0.835379,3.431826 0.857956,1.151468 3.048003,1.151468 1.264357,0 2.280358,-0.474134 1.016001,-0.496712 1.467557,-1.309512 0.519289,-0.970846 0.519289,-3.070581 v -6.096006 q 0,-1.693335 -0.4064,-2.235203 -0.406401,-0.564445 -1.715913,-0.654756 V 70.82186 h 5.23805 v 0.428978 q -1.399824,0.180622 -1.761069,0.677334 -0.361245,0.496712 -0.361245,2.212625 v 5.892806 q 0,1.33209 -0.248356,2.325513 -0.225778,0.993423 -0.835378,1.896535 -0.587023,0.880535 -1.783646,1.354668 -1.174046,0.474134 -2.912537,0.474134 -2.889958,0 -4.289782,-1.399823 -1.377246,-1.422402 -1.377246,-4.357516 V 73.28284 q 0,-1.241779 -0.361245,-1.580446 -0.338667,-0.338667 -1.670757,-0.451556 V 70.82186 h 6.389518 v 0.428978 q -1.354668,0.112889 -1.715913,0.474134 -0.338667,0.338667 -0.338667,1.557868 z"
           id="path654" />
        <path
           d="m 33.554169,75.834132 q 0.02258,0 0.361245,-0.225778 h 0.248356 l 0.09031,3.070581 h -0.338667 q -0.383823,-1.512713 -0.948268,-2.144892 -0.564445,-0.632178 -1.53529,-0.632178 -0.767645,0 -1.264357,0.428978 -0.474134,0.428978 -0.474134,1.106312 0,0.970846 0.970846,1.535291 l 2.438402,1.444979 q 1.016001,0.609601 1.444979,1.241779 0.451556,0.609601 0.451556,1.444979 0,1.174046 -0.948267,2.032003 -0.92569,0.857956 -2.235202,0.857956 -0.564445,0 -1.512713,-0.2032 -0.948268,-0.2032 -1.174046,-0.2032 -0.338667,0 -0.519289,0.270933 h -0.293512 v -3.522137 h 0.361245 q 0.361245,1.580446 0.857957,2.235203 0.722489,0.925689 2.009424,0.925689 0.857956,0 1.354668,-0.428978 0.519289,-0.451556 0.519289,-1.196623 0,-1.016001 -1.174045,-1.693335 l -1.309513,-0.745068 q -1.444979,-0.812801 -2.05458,-1.557868 -0.587022,-0.745067 -0.587022,-1.693335 0,-1.219201 0.857956,-1.986847 0.880534,-0.790223 2.212625,-0.790223 0.745067,0 1.399823,0.225778 0.654756,0.203201 0.790223,0.203201 z"
           id="path656" />
        <path
           d="m 37.979389,79.514313 q 0.04516,1.422402 0.383823,2.46098 0.338667,1.016001 0.880534,1.535291 0.541867,0.496711 1.083735,0.72249 0.564445,0.2032 1.174045,0.2032 1.083735,0 1.873958,-0.541868 0.812801,-0.541867 1.625601,-1.828801 l 0.361245,0.158044 q -0.699912,1.828802 -1.941691,2.799648 -1.241779,0.970845 -2.844803,0.970845 -1.94169,0 -3.093158,-1.354668 -1.12889,-1.377246 -1.12889,-3.702759 0,-2.506136 1.309512,-4.018849 1.33209,-1.53529 3.409248,-1.53529 1.715913,0 2.664181,1.038578 0.948267,1.016001 1.196623,3.093159 z m 0.04516,-0.722489 h 4.605871 q -0.225778,-1.467558 -0.699912,-2.032003 -0.474133,-0.564445 -1.512712,-0.564445 -2.032002,0 -2.393247,2.596448 z"
           id="path658" />
        <path
           d="m 52.383982,77.5952 q -0.338667,0 -0.835379,-0.383823 -0.496711,-0.4064 -0.654756,-0.4064 -0.451556,0 -1.016001,0.654756 -0.564445,0.654756 -0.564445,1.196624 v 5.080005 q 0,0.970845 0.383823,1.309512 0.383822,0.338667 1.53529,0.383823 v 0.338667 h -5.418672 v -0.338667 q 1.083734,-0.2032 1.33209,-0.451556 0.270934,-0.248356 0.270934,-1.106312 v -5.64445 q 0,-0.745068 -0.180623,-1.038579 -0.158044,-0.31609 -0.587022,-0.31609 -0.361245,0 -0.790223,0.09031 v -0.361245 q 1.806224,-0.587023 3.341514,-1.219201 l 0.112889,0.04515 v 2.077158 q 0.835379,-1.196624 1.422402,-1.64818 0.587022,-0.474133 1.286934,-0.474133 0.587023,0 0.903112,0.316089 0.338667,0.316089 0.338667,0.880534 0,0.474134 -0.248356,0.745067 -0.225778,0.270934 -0.632178,0.270934 z"
           id="path660" />
        <path
           d="m 74.939063,77.662933 h 6.841073 V 73.28284 q 0,-1.219201 -0.338667,-1.557868 -0.338667,-0.361245 -1.648179,-0.474134 V 70.82186 h 6.276628 v 0.428978 q -1.309512,0.112889 -1.648179,0.474134 -0.338667,0.338667 -0.338667,1.557868 v 10.024544 q 0,1.196623 0.361245,1.557868 0.361245,0.361245 1.625601,0.474134 v 0.428978 H 79.79329 v -0.428978 q 1.309512,-0.09031 1.648179,-0.474134 0.338667,-0.383823 0.338667,-1.806224 v -4.402671 h -6.841073 v 4.651027 q 0,1.196623 0.361244,1.557868 0.361245,0.361245 1.625602,0.474134 v 0.428978 H 70.64928 v -0.428978 q 1.309513,-0.09031 1.64818,-0.474134 0.338667,-0.383823 0.338667,-1.806224 V 73.28284 q 0,-1.219201 -0.338667,-1.557868 -0.338667,-0.361245 -1.64818,-0.474134 V 70.82186 h 6.276629 v 0.428978 q -1.309512,0.112889 -1.648179,0.474134 -0.338667,0.338667 -0.338667,1.557868 z"
           id="path662" />
        <path
           d="m 97.268479,84.639474 v 0.316089 q -1.761068,0.474134 -3.093158,1.016001 l -0.09031,-0.04515 v -1.873958 q -0.06773,0.06773 -0.4064,0.406401 -0.316089,0.338667 -0.451556,0.474133 -0.135467,0.112889 -0.474134,0.383823 -0.316089,0.248356 -0.564445,0.361245 -0.248356,0.112889 -0.632178,0.2032 -0.383823,0.112889 -0.767645,0.112889 -1.24178,0 -1.986847,-0.790223 -0.745067,-0.812801 -0.745067,-2.144891 v -5.689606 q 0,-0.790223 -0.293512,-1.083734 -0.293511,-0.31609 -1.106312,-0.361245 v -0.316089 h 3.296359 v 7.360363 q 0,0.699911 0.474134,1.219201 0.474134,0.496712 1.12889,0.496712 0.248356,0 0.587023,-0.06773 0.338667,-0.06773 0.767645,-0.248356 0.451556,-0.2032 0.745067,-0.6096 0.316089,-0.428979 0.316089,-1.038579 v -5.305783 q 0,-0.835379 -0.316089,-1.106313 -0.293511,-0.270933 -1.354668,-0.316089 v -0.383822 h 3.567293 v 7.744185 q 0,0.790223 0.248355,1.038579 0.248356,0.248356 1.038579,0.248356 z"
           id="path664" />
        <path
           d="m 97.787764,76.782399 v -0.383822 q 1.625602,-0.451556 3.160896,-1.016001 l 0.15804,0.04515 v 1.693335 q 1.39982,-1.061156 2.07716,-1.399823 0.67733,-0.338667 1.4224,-0.338667 1.78365,0 2.39325,1.896535 1.76107,-1.896535 3.68018,-1.896535 2.61902,0 2.61902,4.018848 v 4.651027 q 0,1.264357 0.97085,1.33209 l 0.58702,0.04516 v 0.338667 h -4.94454 v -0.338667 q 0.99343,-0.112889 1.24178,-0.383823 0.24836,-0.270933 0.24836,-1.241779 v -4.763916 q 0,-1.399823 -0.36125,-1.941691 -0.36124,-0.541867 -1.33209,-0.541867 -1.49013,0 -2.46098,1.377246 v 5.689606 q 0,1.061157 0.31609,1.422401 0.33867,0.361245 1.30951,0.383823 v 0.338667 h -5.05742 v -0.338667 q 0.97084,-0.06773 1.24178,-0.361245 0.29351,-0.293511 0.29351,-1.241779 V 78.92729 q 0,-2.370669 -1.49014,-2.370669 -0.63218,0 -1.4224,0.316089 -0.76764,0.31609 -1.24178,1.016001 v 6.36694 q 0,0.654757 0.31609,0.903112 0.31609,0.225778 1.2192,0.270934 v 0.338667 h -5.012269 v -0.338667 q 0.948268,-0.02258 1.264357,-0.338667 0.316089,-0.316089 0.316089,-1.241779 v -5.712184 q 0,-0.812801 -0.180622,-1.12889 -0.158045,-0.316089 -0.609601,-0.316089 -0.338667,0 -0.72249,0.09031 z"
           id="path666" />
        <path
           d="m 115.53387,83.578317 q 0,-0.4064 0.0903,-0.745067 0.0903,-0.361245 0.31609,-0.654756 0.22578,-0.31609 0.42898,-0.564445 0.2032,-0.248356 0.6096,-0.496712 0.4064,-0.270934 0.67734,-0.428978 0.27093,-0.180623 0.8128,-0.406401 0.56444,-0.248355 0.85795,-0.361244 0.29351,-0.135467 0.92569,-0.383823 0.63218,-0.248356 0.92569,-0.361245 V 77.7984 q 0,-1.873957 -1.71591,-1.873957 -0.67733,0 -1.15147,0.338667 -0.47413,0.316089 -0.47413,0.767645 0,0.180622 0.0452,0.496712 0.0677,0.316089 0.0677,0.4064 0,0.383823 -0.31609,0.677334 -0.29351,0.270934 -0.69991,0.270934 -0.38383,0 -0.67734,-0.293512 -0.29351,-0.293511 -0.29351,-0.677334 0,-1.061156 1.08373,-1.783646 1.10632,-0.745067 2.70934,-0.745067 1.85138,0 2.55129,0.903112 0.69991,0.880534 0.69991,2.709336 v 4.402671 q 0,0.745067 0.13547,1.038579 0.15805,0.270933 0.54187,0.270933 0.47413,0 0.99342,-0.428978 v 0.587023 q -0.58702,0.654756 -1.03858,0.903112 -0.42898,0.225778 -0.99342,0.225778 -0.69991,0 -1.03858,-0.383823 -0.31609,-0.383822 -0.4064,-1.264356 -1.94169,1.648179 -3.29636,1.648179 -1.03858,0 -1.71591,-0.677334 -0.65476,-0.677334 -0.65476,-1.738491 z m 5.64445,-0.587023 v -3.273781 q -2.032,0.745068 -2.8448,1.44498 -0.8128,0.699911 -0.8128,1.693335 0,0.925689 0.45155,1.377246 0.45156,0.451556 0.97085,0.451556 0.76765,0 1.64818,-0.51929 0.36124,-0.2032 0.47413,-0.428978 0.11289,-0.225778 0.11289,-0.745068 z"
           id="path668" />
        <path
           d="m 125.01654,76.782399 v -0.383822 q 1.67076,-0.496712 3.11574,-1.016001 l 0.15804,0.04515 v 1.783646 q 1.15147,-1.083734 1.80622,-1.444979 0.67734,-0.383822 1.46756,-0.383822 1.24178,0 1.94169,0.903112 0.72249,0.880534 0.72249,2.483558 v 5.170316 q 0,0.835379 0.27094,1.12889 0.27093,0.270934 1.10631,0.361245 v 0.338667 h -4.69618 v -0.338667 q 0.85795,-0.06773 1.12889,-0.451556 0.29351,-0.383823 0.29351,-1.444979 v -4.718761 q 0,-2.190046 -1.64818,-2.190046 -0.56445,0 -1.03858,0.270933 -0.47413,0.248356 -1.28694,1.016001 v 6.344362 q 0,0.609601 0.31609,0.857957 0.31609,0.248356 1.17405,0.316089 v 0.338667 h -4.78649 v -0.338667 q 0.85795,-0.06773 1.12889,-0.383823 0.27093,-0.338667 0.27093,-1.309512 v -5.599295 q 0,-0.835378 -0.18062,-1.12889 -0.18063,-0.316089 -0.65476,-0.316089 -0.42898,0 -0.6096,0.09031 z"
           id="path670" />
        <path
           d="m 154.81916,81.70436 q 0,0.677334 -0.24835,1.33209 -0.24836,0.654756 -0.83538,1.309513 -0.56445,0.632178 -1.69334,1.038578 -1.12889,0.383823 -2.68675,0.383823 h -7.54099 v -0.428978 q 1.39982,-0.04516 1.78365,-0.406401 0.38382,-0.361244 0.38382,-1.625601 V 73.28284 q 0,-1.241779 -0.38382,-1.580446 -0.36125,-0.361245 -1.78365,-0.451556 V 70.82186 h 6.32178 q 5.91539,0 5.91539,3.838226 0,0.745067 -0.27094,1.33209 -0.27093,0.564445 -0.56444,0.880534 -0.27093,0.293512 -0.85796,0.564445 -0.58702,0.270934 -0.74506,0.31609 -0.15805,0.02258 -0.65476,0.158044 0.51929,0.135467 0.76764,0.2032 0.27094,0.06773 0.94827,0.383823 0.69991,0.316089 1.08374,0.677334 0.38382,0.361245 0.72249,1.038579 0.33866,0.654756 0.33866,1.490135 z m -7.112,3.228625 q 1.016,0 1.76106,-0.135466 0.74507,-0.135467 1.39983,-0.451556 0.65475,-0.338668 0.99342,-0.993424 0.36125,-0.654756 0.36125,-1.625601 0,-0.92569 -0.36125,-1.557869 -0.33867,-0.654756 -0.83538,-0.993423 -0.49671,-0.338667 -1.37724,-0.519289 -0.88054,-0.180623 -1.55787,-0.2032 -0.67734,-0.04516 -1.80623,-0.04516 v 5.599294 q 0,0.541868 0.29352,0.745068 0.29351,0.180622 1.12889,0.180622 z m -1.42241,-7.428096 h 2.1449 q 1.58044,0 2.4384,-0.699912 0.88053,-0.72249 0.88053,-2.05458 0,-1.512712 -1.016,-2.302935 -1.016,-0.790224 -2.95769,-0.790224 h -0.99342 q -0.49672,0 -0.49672,0.677335 z"
           id="path672" />
        <path
           d="m 161.27637,75.382576 q 2.16747,0 3.5673,1.444979 1.39982,1.444979 1.39982,3.657604 0,2.348091 -1.44498,3.928537 -1.44498,1.580446 -3.56729,1.580446 -2.12232,0 -3.54472,-1.512713 -1.39982,-1.53529 -1.39982,-3.815648 0,-2.325513 1.37725,-3.793071 1.39982,-1.490134 3.61244,-1.490134 z m -2.95769,4.176893 q 0,2.415824 0.88054,4.109159 0.88053,1.693336 2.30293,1.693336 1.26436,0 1.98685,-1.083735 0.72249,-1.083734 0.72249,-3.002847 0,-2.325514 -0.90311,-3.793071 -0.90312,-1.467557 -2.32552,-1.467557 -1.19662,0 -1.94169,0.970845 -0.72249,0.970846 -0.72249,2.57387 z"
           id="path674" />
        <path
           d="m 174.52954,85.994142 -0.0903,-0.06773 v -1.44498 q -1.08373,1.512713 -2.88995,1.512713 -1.87396,0 -3.02543,-1.33209 -1.15147,-1.354668 -1.15147,-3.522137 0,-2.393247 1.37725,-4.064004 1.37724,-1.693335 3.31894,-1.693335 1.2192,0 2.37066,0.970845 v -3.522137 q 0,-0.699912 -0.2032,-0.92569 -0.2032,-0.225778 -0.83537,-0.225778 -0.31609,0 -0.49672,0.02258 v -0.361245 q 2.05458,-0.541867 3.31894,-0.993423 l 0.11289,0.04516 v 12.801613 q 0,0.790223 0.18062,1.038579 0.2032,0.248355 0.8128,0.248355 0.11289,0 0.51929,-0.02258 v 0.361244 z m -2.09974,-1.174046 q 0.85796,0 1.4224,-0.474133 0.58702,-0.496712 0.58702,-0.880535 v -5.192894 q 0,-0.903112 -0.69991,-1.580446 -0.69991,-0.677334 -1.60302,-0.677334 -1.28694,0 -2.05458,1.151468 -0.76765,1.151468 -0.76765,3.070581 0,2.077157 0.85796,3.341514 0.85796,1.241779 2.25778,1.241779 z"
           id="path676" />
        <path
           d="m 180.71579,88.793789 q 0.63218,0 1.33209,-1.399823 0.69991,-1.399824 0.69991,-2.05458 0,-0.293512 -0.99342,-2.280358 l -2.98027,-6.412096 q -0.27094,-0.587022 -1.15147,-0.722489 v -0.316089 h 4.65103 v 0.338667 q -0.72249,0.02258 -1.016,0.158044 -0.29352,0.135467 -0.29352,0.451556 0,0.338667 0.22578,0.857957 l 2.59645,5.712183 2.19005,-6.231473 q 0.0903,-0.2032 0.0903,-0.383822 0,-0.564445 -1.08374,-0.564445 v -0.338667 h 3.04801 v 0.338667 q -0.4064,0.04515 -0.65476,0.270933 -0.22578,0.2032 -0.42898,0.745068 l -3.47698,9.211742 q -0.90311,2.438403 -1.80622,3.476982 -0.88054,1.038579 -2.00943,1.038579 -0.72249,0 -1.19662,-0.383823 -0.47414,-0.361245 -0.47414,-0.92569 0,-0.4064 0.29352,-0.699912 0.29351,-0.293511 0.67733,-0.293511 0.49671,0 1.06116,0.2032 0.56444,0.2032 0.69991,0.2032 z"
           id="path678" />
        <path
           d="m 211.64722,70.82186 q 0.97084,0 1.85138,0.158044 0.88053,0.158045 1.80622,0.564445 0.94827,0.383823 1.51271,1.219202 0.56445,0.835378 0.56445,2.032002 0,3.002847 -3.97369,3.747915 -0.0677,0.02258 -0.11289,0.02258 l 4.65102,5.712183 q 0.47414,0.564445 0.88054,0.790223 0.42898,0.225778 1.08373,0.270934 v 0.428978 h -3.63502 l -5.37352,-6.953963 -1.26436,0.04516 v 4.447827 q 0,1.219201 0.36125,1.580446 0.36124,0.361245 1.67076,0.451556 v 0.428978 h -6.25406 v -0.428978 q 1.26436,-0.09031 1.58045,-0.474134 0.33867,-0.4064 0.33867,-1.806224 V 73.28284 q 0,-1.196623 -0.33867,-1.53529 -0.31609,-0.361245 -1.58045,-0.496712 V 70.82186 Z m -2.00943,7.202318 q 2.73192,-0.04516 3.99627,-0.722489 1.28694,-0.677334 1.28694,-2.551292 0,-1.580446 -1.016,-2.325513 -0.99343,-0.767646 -3.11574,-0.767646 -0.67733,0 -0.92569,0.180623 -0.22578,0.158044 -0.22578,0.632178 z"
           id="path680" />
        <path
           d="m 222.32651,79.514313 q 0.0452,1.422402 0.38382,2.46098 0.33867,1.016001 0.88054,1.535291 0.54187,0.496711 1.08373,0.72249 0.56445,0.2032 1.17405,0.2032 1.08373,0 1.87396,-0.541868 0.8128,-0.541867 1.6256,-1.828801 l 0.36124,0.158044 q -0.69991,1.828802 -1.94169,2.799648 -1.24178,0.970845 -2.8448,0.970845 -1.94169,0 -3.09316,-1.354668 -1.12889,-1.377246 -1.12889,-3.702759 0,-2.506136 1.30951,-4.018849 1.33209,-1.53529 3.40925,-1.53529 1.71591,0 2.66418,1.038578 0.94827,1.016001 1.19662,3.093159 z m 0.0452,-0.722489 h 4.60587 q -0.22578,-1.467558 -0.69991,-2.032003 -0.47414,-0.564445 -1.51272,-0.564445 -2.032,0 -2.39324,2.596448 z"
           id="path682" />
        <path
           d="m 230.49963,83.578317 q 0,-0.4064 0.0903,-0.745067 0.0903,-0.361245 0.31609,-0.654756 0.22578,-0.31609 0.42898,-0.564445 0.2032,-0.248356 0.6096,-0.496712 0.4064,-0.270934 0.67733,-0.428978 0.27094,-0.180623 0.81281,-0.406401 0.56444,-0.248355 0.85795,-0.361244 0.29351,-0.135467 0.92569,-0.383823 0.63218,-0.248356 0.92569,-0.361245 V 77.7984 q 0,-1.873957 -1.71591,-1.873957 -0.67734,0 -1.15147,0.338667 -0.47413,0.316089 -0.47413,0.767645 0,0.180622 0.0452,0.496712 0.0677,0.316089 0.0677,0.4064 0,0.383823 -0.31609,0.677334 -0.29351,0.270934 -0.69992,0.270934 -0.38382,0 -0.67733,-0.293512 -0.29351,-0.293511 -0.29351,-0.677334 0,-1.061156 1.08373,-1.783646 1.10632,-0.745067 2.70934,-0.745067 1.85138,0 2.55129,0.903112 0.69991,0.880534 0.69991,2.709336 v 4.402671 q 0,0.745067 0.13547,1.038579 0.15804,0.270933 0.54187,0.270933 0.47413,0 0.99342,-0.428978 v 0.587023 q -0.58702,0.654756 -1.03858,0.903112 -0.42898,0.225778 -0.99342,0.225778 -0.69991,0 -1.03858,-0.383823 -0.31609,-0.383822 -0.4064,-1.264356 -1.94169,1.648179 -3.29636,1.648179 -1.03858,0 -1.71591,-0.677334 -0.65476,-0.677334 -0.65476,-1.738491 z m 5.64445,-0.587023 v -3.273781 q -2.032,0.745068 -2.8448,1.44498 -0.8128,0.699911 -0.8128,1.693335 0,0.925689 0.45155,1.377246 0.45156,0.451556 0.97085,0.451556 0.76764,0 1.64818,-0.51929 0.36124,-0.2032 0.47413,-0.428978 0.11289,-0.225778 0.11289,-0.745068 z"
           id="path684" />
        <path
           d="m 239.86938,71.702394 v -0.361245 q 2.23521,-0.541867 3.58987,-0.993423 l 0.0903,0.04516 v 13.478947 q 0,0.92569 0.29351,1.219201 0.31609,0.270934 1.39982,0.338667 v 0.338667 h -5.32836 v -0.338667 q 1.06116,-0.09031 1.39982,-0.4064 0.33867,-0.31609 0.33867,-1.219202 V 73.034484 q 0,-0.790223 -0.2032,-1.083734 -0.2032,-0.293512 -0.74507,-0.293512 -0.45155,0 -0.83538,0.04516 z"
           id="path686" />
        <path
           d="m 246.86849,76.895288 q -0.49671,0 -0.94827,0.06773 v -0.338667 q 1.58045,-0.451556 3.49956,-1.241779 l 0.0903,0.06773 v 8.015119 q 0,1.219202 0.27093,1.557869 0.29352,0.316089 1.39983,0.4064 v 0.338667 h -5.35094 v -0.338667 q 1.17404,-0.06773 1.46756,-0.4064 0.31609,-0.338667 0.31609,-1.557869 v -5.238049 q 0,-0.745068 -0.18063,-1.038579 -0.15804,-0.293512 -0.56444,-0.293512 z m 1.49013,-6.547562 q 0.49671,0 0.83538,0.338667 0.33867,0.338667 0.33867,0.812801 0,0.496711 -0.33867,0.835379 -0.33867,0.316089 -0.83538,0.316089 -0.47413,0 -0.8128,-0.338667 -0.31609,-0.338667 -0.31609,-0.812801 0,-0.474134 0.33867,-0.812801 0.33867,-0.338667 0.79022,-0.338667 z"
           id="path688" />
        <path
           d="m 257.14137,75.608354 v 0.722489 h -2.28036 v 6.457251 q 0,1.061157 0.27094,1.557869 0.27093,0.474133 0.90311,0.474133 0.69991,0 1.35467,-0.790223 l 0.29351,0.248356 q -1.08373,1.715913 -2.70934,1.715913 -2.00942,0 -2.00942,-2.867381 v -6.795918 h -1.19662 q -0.0903,-0.06773 -0.0903,-0.158044 0,-0.112889 0.0677,-0.180623 0.0677,-0.06773 0.24835,-0.180622 0.2032,-0.135467 0.47414,-0.338667 0.27093,-0.225778 0.74507,-0.790223 0.47413,-0.564445 1.03857,-1.354668 0.36125,-0.51929 0.45156,-0.632179 0.15804,0 0.15804,0.293512 v 2.619025 z"
           id="path690" />
        <path
           d="m 260.88927,88.793789 q 0.63217,0 1.33209,-1.399823 0.69991,-1.399824 0.69991,-2.05458 0,-0.293512 -0.99343,-2.280358 l -2.98027,-6.412096 q -0.27093,-0.587022 -1.15146,-0.722489 v -0.316089 h 4.65102 v 0.338667 q -0.72249,0.02258 -1.016,0.158044 -0.29351,0.135467 -0.29351,0.451556 0,0.338667 0.22578,0.857957 l 2.59645,5.712183 2.19004,-6.231473 q 0.0903,-0.2032 0.0903,-0.383822 0,-0.564445 -1.08373,-0.564445 v -0.338667 h 3.048 v 0.338667 q -0.4064,0.04515 -0.65475,0.270933 -0.22578,0.2032 -0.42898,0.745068 l -3.47698,9.211742 q -0.90311,2.438403 -1.80623,3.476982 -0.88053,1.038579 -2.00942,1.038579 -0.72249,0 -1.19662,-0.383823 -0.47414,-0.361245 -0.47414,-0.92569 0,-0.4064 0.29351,-0.699912 0.29351,-0.293511 0.67734,-0.293511 0.49671,0 1.06115,0.2032 0.56445,0.2032 0.69992,0.2032 z"
           id="path692" />
      </g>
      <g
         aria-label="----------"
         transform="rotate(89.964271)"
         id="text499"
         style="font-size:22.5778px;font-family:FreeSerif;-inkscape-font-specification:FreeSerif;text-align:center;text-anchor:middle;stroke:#b3b3b3;stroke-width:0.3;stroke-linecap:round;stroke-linejoin:round;paint-order:fill markers stroke">
        <path
           d="m 42.301722,-62.729863 h 5.554139 v 1.422401 h -5.554139 z"
           id="path695" />
        <path
           d="m 49.82009,-62.729863 h 5.554139 v 1.422401 H 49.82009 Z"
           id="path697" />
        <path
           d="m 57.338459,-62.729863 h 5.554139 v 1.422401 h -5.554139 z"
           id="path699" />
        <path
           d="m 64.856829,-62.729863 h 5.554139 v 1.422401 h -5.554139 z"
           id="path701" />
        <path
           d="m 72.375197,-62.729863 h 5.554139 v 1.422401 h -5.554139 z"
           id="path703" />
        <path
           d="m 79.893564,-62.729863 h 5.554139 v 1.422401 h -5.554139 z"
           id="path705" />
        <path
           d="m 87.411936,-62.729863 h 5.554139 v 1.422401 h -5.554139 z"
           id="path707" />
        <path
           d="m 94.930304,-62.729863 h 5.554136 v 1.422401 h -5.554136 z"
           id="path709" />
        <path
           d="m 102.44867,-62.729863 h 5.55414 v 1.422401 h -5.55414 z"
           id="path711" />
        <path
           d="m 109.96704,-62.729863 h 5.55414 v 1.422401 h -5.55414 z"
           id="path713" />
      </g>
      <g
         aria-label="----------"
         transform="rotate(89.964271)"
         id="text499-3"
         style="font-size:22.5778px;font-family:FreeSerif;-inkscape-font-specification:FreeSerif;text-align:center;text-anchor:middle;stroke:#b3b3b3;stroke-width:0.3;stroke-linecap:round;stroke-linejoin:round;paint-order:fill markers stroke">
        <path
           d="m 42.491045,-197.24958 h 5.554139 v 1.4224 h -5.554139 z"
           id="path716" />
        <path
           d="m 50.009414,-197.24958 h 5.554139 v 1.4224 h -5.554139 z"
           id="path718" />
        <path
           d="m 57.527783,-197.24958 h 5.554138 v 1.4224 h -5.554138 z"
           id="path720" />
        <path
           d="m 65.046152,-197.24958 h 5.554139 v 1.4224 h -5.554139 z"
           id="path722" />
        <path
           d="m 72.56452,-197.24958 h 5.554139 v 1.4224 H 72.56452 Z"
           id="path724" />
        <path
           d="m 80.082888,-197.24958 h 5.554139 v 1.4224 h -5.554139 z"
           id="path726" />
        <path
           d="m 87.601259,-197.24958 h 5.554139 v 1.4224 h -5.554139 z"
           id="path728" />
        <path
           d="m 95.119627,-197.24958 h 5.554143 v 1.4224 h -5.554143 z"
           id="path730" />
        <path
           d="m 102.63799,-197.24958 h 5.55414 v 1.4224 h -5.55414 z"
           id="path732" />
        <path
           d="m 110.15637,-197.24958 h 5.55414 v 1.4224 h -5.55414 z"
           id="path734" />
      </g>
    </g>
  </g>
</svg>
