<?xml version="1.0" encoding="UTF-8" standalone="no"?>
<!-- Created with Inkscape (http://www.inkscape.org/) -->

<svg
   width="290mm"
   height="109.99999mm"
   viewBox="0 0 290 109.99999"
   version="1.1"
   id="svg5"
   sodipodi:docname="interfaces_a.svg"
   inkscape:version="1.2 (dc2aeda, 2022-05-15)"
   xmlns:inkscape="http://www.inkscape.org/namespaces/inkscape"
   xmlns:sodipodi="http://sodipodi.sourceforge.net/DTD/sodipodi-0.dtd"
   xmlns="http://www.w3.org/2000/svg"
   xmlns:svg="http://www.w3.org/2000/svg">
  <sodipodi:namedview
     id="namedview12"
     pagecolor="#ffffff"
     bordercolor="#000000"
     borderopacity="0.25"
     inkscape:showpageshadow="2"
     inkscape:pageopacity="0.0"
     inkscape:pagecheckerboard="0"
     inkscape:deskcolor="#d1d1d1"
     inkscape:document-units="mm"
     showgrid="false"
     inkscape:zoom="0.83351228"
     inkscape:cx="719.84542"
     inkscape:cy="212.3544"
     inkscape:window-width="1920"
     inkscape:window-height="1024"
     inkscape:window-x="0"
     inkscape:window-y="0"
     inkscape:window-maximized="1"
     inkscape:current-layer="text186" />
  <defs
     id="defs2" />
  <g
     id="layer1">
    <g
       id="g534"
       transform="translate(5.2819712,-24.566179)">
      <g
         aria-label="Human   Computer   Internet"
         id="text186"
         style="font-size:22.5778px;font-family:FreeSerif;-inkscape-font-specification:FreeSerif;text-align:center;text-anchor:middle;stroke:#b3b3b3;stroke-width:0.3;stroke-linecap:round;stroke-linejoin:round;paint-order:fill markers stroke">
        <path
           d="m 15.221026,77.662933 h 6.841073 V 73.28284 q 0,-1.219201 -0.338667,-1.557868 -0.338667,-0.361245 -1.648179,-0.474134 V 70.82186 h 6.276628 v 0.428978 q -1.309512,0.112889 -1.648179,0.474134 -0.338667,0.338667 -0.338667,1.557868 v 10.024544 q 0,1.196623 0.361245,1.557868 0.361245,0.361245 1.625601,0.474134 v 0.428978 h -6.276628 v -0.428978 q 1.309512,-0.09031 1.648179,-0.474134 0.338667,-0.383823 0.338667,-1.806224 v -4.402671 h -6.841073 v 4.651027 q 0,1.196623 0.361245,1.557868 0.361244,0.361245 1.625601,0.474134 v 0.428978 h -6.276628 v -0.428978 q 1.309512,-0.09031 1.648179,-0.474134 0.338667,-0.383823 0.338667,-1.806224 V 73.28284 q 0,-1.219201 -0.338667,-1.557868 -0.338667,-0.361245 -1.648179,-0.474134 V 70.82186 h 6.276628 v 0.428978 q -1.309512,0.112889 -1.648179,0.474134 -0.338667,0.338667 -0.338667,1.557868 z"
           id="path295" />
        <path
           d="m 37.550444,84.639474 v 0.316089 q -1.761068,0.474134 -3.093158,1.016001 l -0.09031,-0.04515 v -1.873958 q -0.06773,0.06773 -0.4064,0.406401 -0.316089,0.338667 -0.451556,0.474133 -0.135467,0.112889 -0.474134,0.383823 -0.316089,0.248356 -0.564445,0.361245 -0.248356,0.112889 -0.632178,0.2032 -0.383823,0.112889 -0.767645,0.112889 -1.241779,0 -1.986847,-0.790223 -0.745067,-0.812801 -0.745067,-2.144891 v -5.689606 q 0,-0.790223 -0.293512,-1.083734 -0.293511,-0.31609 -1.106312,-0.361245 v -0.316089 h 3.296359 v 7.360363 q 0,0.699911 0.474134,1.219201 0.474134,0.496712 1.12889,0.496712 0.248356,0 0.587023,-0.06773 0.338667,-0.06773 0.767645,-0.248356 0.451556,-0.2032 0.745067,-0.6096 0.316089,-0.428979 0.316089,-1.038579 v -5.305783 q 0,-0.835379 -0.316089,-1.106313 -0.293511,-0.270933 -1.354668,-0.316089 v -0.383822 h 3.567293 v 7.744185 q 0,0.790223 0.248356,1.038579 0.248355,0.248356 1.038578,0.248356 z"
           id="path297" />
        <path
           d="m 38.069727,76.782399 v -0.383822 q 1.625602,-0.451556 3.160893,-1.016001 l 0.158044,0.04515 v 1.693335 q 1.399824,-1.061156 2.077158,-1.399823 0.677334,-0.338667 1.422401,-0.338667 1.783647,0 2.393247,1.896535 1.761069,-1.896535 3.680182,-1.896535 2.619025,0 2.619025,4.018848 v 4.651027 q 0,1.264357 0.970845,1.33209 l 0.587023,0.04516 v 0.338667 h -4.944539 v -0.338667 q 0.993424,-0.112889 1.24178,-0.383823 0.248355,-0.270933 0.248355,-1.241779 v -4.763916 q 0,-1.399823 -0.361244,-1.941691 -0.361245,-0.541867 -1.332091,-0.541867 -1.490135,0 -2.46098,1.377246 v 5.689606 q 0,1.061157 0.316089,1.422401 0.338667,0.361245 1.309513,0.383823 v 0.338667 H 44.098 v -0.338667 q 0.970846,-0.06773 1.241779,-0.361245 0.293512,-0.293511 0.293512,-1.241779 V 78.92729 q 0,-2.370669 -1.490135,-2.370669 -0.632179,0 -1.422402,0.316089 -0.767645,0.31609 -1.241779,1.016001 v 6.36694 q 0,0.654757 0.31609,0.903112 0.316089,0.225778 1.219201,0.270934 v 0.338667 h -5.012272 v -0.338667 q 0.948268,-0.02258 1.264357,-0.338667 0.316089,-0.316089 0.316089,-1.241779 v -5.712184 q 0,-0.812801 -0.180622,-1.12889 -0.158045,-0.316089 -0.609601,-0.316089 -0.338667,0 -0.72249,0.09031 z"
           id="path299" />
        <path
           d="m 55.815839,83.578317 q 0,-0.4064 0.09031,-0.745067 0.09031,-0.361245 0.316089,-0.654756 0.225778,-0.31609 0.428978,-0.564445 0.203201,-0.248356 0.609601,-0.496712 0.406401,-0.270934 0.677334,-0.428978 0.270934,-0.180623 0.812801,-0.406401 0.564445,-0.248355 0.857956,-0.361244 0.293512,-0.135467 0.92569,-0.383823 0.632179,-0.248356 0.92569,-0.361245 V 77.7984 q 0,-1.873957 -1.715913,-1.873957 -0.677334,0 -1.151468,0.338667 -0.474133,0.316089 -0.474133,0.767645 0,0.180622 0.04516,0.496712 0.06773,0.316089 0.06773,0.4064 0,0.383823 -0.31609,0.677334 -0.293511,0.270934 -0.699911,0.270934 -0.383823,0 -0.677335,-0.293512 -0.293511,-0.293511 -0.293511,-0.677334 0,-1.061156 1.083735,-1.783646 1.106312,-0.745067 2.709336,-0.745067 1.851379,0 2.551291,0.903112 0.699912,0.880534 0.699912,2.709336 v 4.402671 q 0,0.745067 0.135467,1.038579 0.158044,0.270933 0.541867,0.270933 0.474134,0 0.993423,-0.428978 v 0.587023 q -0.587023,0.654756 -1.038579,0.903112 -0.428978,0.225778 -0.993423,0.225778 -0.699912,0 -1.038579,-0.383823 -0.316089,-0.383822 -0.4064,-1.264356 -1.941691,1.648179 -3.296359,1.648179 -1.038579,0 -1.715913,-0.677334 -0.654756,-0.677334 -0.654756,-1.738491 z m 5.64445,-0.587023 v -3.273781 q -2.032002,0.745068 -2.844803,1.44498 -0.812801,0.699911 -0.812801,1.693335 0,0.925689 0.451556,1.377246 0.451556,0.451556 0.970846,0.451556 0.767645,0 1.648179,-0.51929 0.361245,-0.2032 0.474134,-0.428978 0.112889,-0.225778 0.112889,-0.745068 z"
           id="path301" />
        <path
           d="m 65.298503,76.782399 v -0.383822 q 1.670757,-0.496712 3.115736,-1.016001 l 0.158045,0.04515 v 1.783646 q 1.151468,-1.083734 1.806224,-1.444979 0.677334,-0.383822 1.467557,-0.383822 1.241779,0 1.941691,0.903112 0.72249,0.880534 0.72249,2.483558 v 5.170316 q 0,0.835379 0.270933,1.12889 0.270934,0.270934 1.106312,0.361245 v 0.338667 h -4.696182 v -0.338667 q 0.857956,-0.06773 1.12889,-0.451556 0.293511,-0.383823 0.293511,-1.444979 v -4.718761 q 0,-2.190046 -1.648179,-2.190046 -0.564445,0 -1.038579,0.270933 -0.474134,0.248356 -1.286935,1.016001 v 6.344362 q 0,0.609601 0.31609,0.857957 0.316089,0.248356 1.174045,0.316089 v 0.338667 h -4.786494 v -0.338667 q 0.857957,-0.06773 1.128891,-0.383823 0.270933,-0.338667 0.270933,-1.309512 v -5.599295 q 0,-0.835378 -0.180622,-1.12889 -0.180623,-0.316089 -0.654757,-0.316089 -0.428978,0 -0.6096,0.09031 z"
           id="path303" />
        <path
           d="m 93.83668,78.430579 q 0,-3.522137 2.167469,-5.712184 2.167469,-2.212624 5.396091,-2.212624 1.44498,0 2.70934,0.383822 1.26436,0.361245 1.46756,0.361245 0.74506,0 0.94826,-0.745067 h 0.47414 l 0.2032,5.102583 h -0.51929 q -1.24178,-4.199471 -4.85423,-4.199471 -2.460979,0 -3.928536,1.828802 -1.444979,1.828801 -1.444979,4.899382 0,1.964269 0.496711,3.409248 0.51929,1.422402 1.377246,2.167469 0.857957,0.72249 1.761068,1.061157 0.92569,0.316089 1.96427,0.316089 2.66418,0 5.03485,-2.280358 l 0.4064,0.4064 q -1.03858,1.377246 -2.6416,2.122314 -1.60303,0.745067 -3.52214,0.745067 -3.341515,0 -5.418672,-2.099735 -2.077158,-2.099736 -2.077158,-5.554139 z"
           id="path305" />
        <path
           d="m 113.72768,75.382576 q 2.16747,0 3.56729,1.444979 1.39982,1.444979 1.39982,3.657604 0,2.348091 -1.44497,3.928537 -1.44498,1.580446 -3.5673,1.580446 -2.12231,0 -3.54471,-1.512713 -1.39983,-1.53529 -1.39983,-3.815648 0,-2.325513 1.37725,-3.793071 1.39982,-1.490134 3.61245,-1.490134 z m -2.95769,4.176893 q 0,2.415824 0.88053,4.109159 0.88054,1.693336 2.30294,1.693336 1.26435,0 1.98684,-1.083735 0.72249,-1.083734 0.72249,-3.002847 0,-2.325514 -0.90311,-3.793071 -0.90311,-1.467557 -2.32551,-1.467557 -1.19663,0 -1.94169,0.970845 -0.72249,0.970846 -0.72249,2.57387 z"
           id="path307" />
        <path
           d="m 119.32695,76.782399 v -0.383822 q 1.6256,-0.451556 3.16089,-1.016001 l 0.15805,0.04515 v 1.693335 q 1.39982,-1.061156 2.07716,-1.399823 0.67733,-0.338667 1.4224,-0.338667 1.78364,0 2.39325,1.896535 1.76106,-1.896535 3.68018,-1.896535 2.61902,0 2.61902,4.018848 v 4.651027 q 0,1.264357 0.97085,1.33209 l 0.58702,0.04516 v 0.338667 h -4.94454 v -0.338667 q 0.99342,-0.112889 1.24178,-0.383823 0.24836,-0.270933 0.24836,-1.241779 v -4.763916 q 0,-1.399823 -0.36125,-1.941691 -0.36124,-0.541867 -1.33209,-0.541867 -1.49013,0 -2.46098,1.377246 v 5.689606 q 0,1.061157 0.31609,1.422401 0.33867,0.361245 1.30951,0.383823 v 0.338667 h -5.05742 v -0.338667 q 0.97084,-0.06773 1.24177,-0.361245 0.29352,-0.293511 0.29352,-1.241779 V 78.92729 q 0,-2.370669 -1.49014,-2.370669 -0.63218,0 -1.4224,0.316089 -0.76765,0.31609 -1.24178,1.016001 v 6.36694 q 0,0.654757 0.31609,0.903112 0.31609,0.225778 1.2192,0.270934 v 0.338667 h -5.01227 v -0.338667 q 0.94827,-0.02258 1.26436,-0.338667 0.31609,-0.316089 0.31609,-1.241779 v -5.712184 q 0,-0.812801 -0.18063,-1.12889 -0.15804,-0.316089 -0.6096,-0.316089 -0.33866,0 -0.72249,0.09031 z"
           id="path309" />
        <path
           d="m 136.93762,76.895288 v -0.361245 q 1.4224,-0.428978 3.2512,-1.151467 l 0.13547,0.04515 v 1.738491 q 1.44498,-1.783646 3.2512,-1.783646 1.64818,0 2.70934,1.354668 1.06116,1.354668 1.06116,3.454403 0,2.46098 -1.37725,4.131738 -1.35467,1.670757 -3.36409,1.670757 -0.72249,0 -1.2192,-0.2032 -0.47414,-0.2032 -1.06116,-0.767645 v 3.544714 q 0,1.061157 0.36124,1.354668 0.36125,0.31609 1.62561,0.338667 v 0.406401 h -5.46383 v -0.383823 q 0.99342,-0.09031 1.28693,-0.383823 0.29351,-0.293511 0.29351,-1.174045 V 78.159645 q 0,-0.790223 -0.18062,-1.038579 -0.18062,-0.248356 -0.74507,-0.248356 -0.36124,0 -0.56444,0.02258 z m 3.38667,1.332091 v 5.554138 q 0,0.496712 0.76764,0.993424 0.79023,0.496711 1.58045,0.496711 1.2192,0 1.96427,-1.151468 0.76764,-1.174045 0.76764,-3.048003 0,-1.964268 -0.76764,-3.138314 -0.74507,-1.196623 -2.00942,-1.196623 -0.79023,0 -1.55787,0.496711 -0.74507,0.496712 -0.74507,0.993424 z"
           id="path311" />
        <path
           d="m 158.52195,84.639474 v 0.316089 q -1.76107,0.474134 -3.09316,1.016001 l -0.0903,-0.04515 v -1.873958 q -0.0677,0.06773 -0.4064,0.406401 -0.31609,0.338667 -0.45156,0.474133 -0.13547,0.112889 -0.47413,0.383823 -0.31609,0.248356 -0.56445,0.361245 -0.24835,0.112889 -0.63218,0.2032 -0.38382,0.112889 -0.76764,0.112889 -1.24178,0 -1.98685,-0.790223 -0.74507,-0.812801 -0.74507,-2.144891 v -5.689606 q 0,-0.790223 -0.29351,-1.083734 -0.29351,-0.31609 -1.10631,-0.361245 v -0.316089 h 3.29636 v 7.360363 q 0,0.699911 0.47413,1.219201 0.47414,0.496712 1.12889,0.496712 0.24836,0 0.58703,-0.06773 0.33866,-0.06773 0.76764,-0.248356 0.45156,-0.2032 0.74507,-0.6096 0.31609,-0.428979 0.31609,-1.038579 v -5.305783 q 0,-0.835379 -0.31609,-1.106313 -0.29351,-0.270933 -1.35467,-0.316089 v -0.383822 h 3.56729 v 7.744185 q 0,0.790223 0.24836,1.038579 0.24835,0.248356 1.03858,0.248356 z"
           id="path313" />
        <path
           d="m 164.59538,75.608354 v 0.722489 h -2.28036 v 6.457251 q 0,1.061157 0.27093,1.557869 0.27094,0.474133 0.90312,0.474133 0.69991,0 1.35466,-0.790223 l 0.29352,0.248356 q -1.08374,1.715913 -2.70934,1.715913 -2.00942,0 -2.00942,-2.867381 v -6.795918 h -1.19663 q -0.0903,-0.06773 -0.0903,-0.158044 0,-0.112889 0.0677,-0.180623 0.0677,-0.06773 0.24836,-0.180622 0.2032,-0.135467 0.47413,-0.338667 0.27094,-0.225778 0.74507,-0.790223 0.47413,-0.564445 1.03858,-1.354668 0.36124,-0.51929 0.45156,-0.632179 0.15804,0 0.15804,0.293512 v 2.619025 z"
           id="path315" />
        <path
           d="m 167.32727,79.514313 q 0.0452,1.422402 0.38382,2.46098 0.33867,1.016001 0.88054,1.535291 0.54186,0.496711 1.08373,0.72249 0.56445,0.2032 1.17405,0.2032 1.08373,0 1.87395,-0.541868 0.81281,-0.541867 1.62561,-1.828801 l 0.36124,0.158044 q -0.69991,1.828802 -1.94169,2.799648 -1.24178,0.970845 -2.8448,0.970845 -1.94169,0 -3.09316,-1.354668 -1.12889,-1.377246 -1.12889,-3.702759 0,-2.506136 1.30951,-4.018849 1.33209,-1.53529 3.40925,-1.53529 1.71591,0 2.66418,1.038578 0.94827,1.016001 1.19662,3.093159 z m 0.0452,-0.722489 h 4.60587 q -0.22578,-1.467558 -0.69991,-2.032003 -0.47414,-0.564445 -1.51272,-0.564445 -2.032,0 -2.39324,2.596448 z"
           id="path317" />
        <path
           d="m 181.73186,77.5952 q -0.33866,0 -0.83538,-0.383823 -0.49671,-0.4064 -0.65475,-0.4064 -0.45156,0 -1.016,0.654756 -0.56445,0.654756 -0.56445,1.196624 v 5.080005 q 0,0.970845 0.38382,1.309512 0.38383,0.338667 1.5353,0.383823 v 0.338667 h -5.41868 v -0.338667 q 1.08374,-0.2032 1.33209,-0.451556 0.27094,-0.248356 0.27094,-1.106312 v -5.64445 q 0,-0.745068 -0.18063,-1.038579 -0.15804,-0.31609 -0.58702,-0.31609 -0.36124,0 -0.79022,0.09031 v -0.361245 q 1.80622,-0.587023 3.34151,-1.219201 l 0.11289,0.04515 v 2.077158 q 0.83538,-1.196624 1.4224,-1.64818 0.58703,-0.474133 1.28694,-0.474133 0.58702,0 0.90311,0.316089 0.33867,0.316089 0.33867,0.880534 0,0.474134 -0.24836,0.745067 -0.22578,0.270934 -0.63218,0.270934 z"
           id="path319" />
        <path
           d="M 202.18721,83.307384 V 73.28284 q 0,-1.241779 -0.38382,-1.580446 -0.36125,-0.361245 -1.80623,-0.451556 V 70.82186 h 6.70561 v 0.428978 q -1.4224,0.06773 -1.8288,0.428978 -0.38383,0.361245 -0.38383,1.603024 v 10.024544 q 0,1.241779 0.4064,1.625601 0.4064,0.361245 1.80623,0.406401 v 0.428978 h -6.70561 v -0.428978 q 1.4224,-0.04516 1.80623,-0.406401 0.38382,-0.361244 0.38382,-1.625601 z"
           id="path321" />
        <path
           d="m 207.26721,76.782399 v -0.383822 q 1.67075,-0.496712 3.11573,-1.016001 l 0.15805,0.04515 v 1.783646 q 1.15147,-1.083734 1.80622,-1.444979 0.67734,-0.383822 1.46756,-0.383822 1.24178,0 1.94169,0.903112 0.72249,0.880534 0.72249,2.483558 v 5.170316 q 0,0.835379 0.27093,1.12889 0.27094,0.270934 1.10632,0.361245 v 0.338667 h -4.69619 v -0.338667 q 0.85796,-0.06773 1.12889,-0.451556 0.29351,-0.383823 0.29351,-1.444979 v -4.718761 q 0,-2.190046 -1.64817,-2.190046 -0.56445,0 -1.03858,0.270933 -0.47414,0.248356 -1.28694,1.016001 v 6.344362 q 0,0.609601 0.31609,0.857957 0.31609,0.248356 1.17405,0.316089 v 0.338667 h -4.7865 v -0.338667 q 0.85796,-0.06773 1.12889,-0.383823 0.27094,-0.338667 0.27094,-1.309512 v -5.599295 q 0,-0.835378 -0.18063,-1.12889 -0.18062,-0.316089 -0.65475,-0.316089 -0.42898,0 -0.6096,0.09031 z"
           id="path323" />
        <path
           d="m 223.81666,75.608354 v 0.722489 h -2.28036 v 6.457251 q 0,1.061157 0.27094,1.557869 0.27093,0.474133 0.90311,0.474133 0.69991,0 1.35467,-0.790223 l 0.29351,0.248356 q -1.08374,1.715913 -2.70934,1.715913 -2.00942,0 -2.00942,-2.867381 v -6.795918 h -1.19663 q -0.0903,-0.06773 -0.0903,-0.158044 0,-0.112889 0.0677,-0.180623 0.0677,-0.06773 0.24835,-0.180622 0.2032,-0.135467 0.47414,-0.338667 0.27093,-0.225778 0.74506,-0.790223 0.47414,-0.564445 1.03858,-1.354668 0.36125,-0.51929 0.45156,-0.632179 0.15804,0 0.15804,0.293512 v 2.619025 z"
           id="path325" />
        <path
           d="m 226.54855,79.514313 q 0.0452,1.422402 0.38383,2.46098 0.33866,1.016001 0.88053,1.535291 0.54187,0.496711 1.08373,0.72249 0.56445,0.2032 1.17405,0.2032 1.08373,0 1.87396,-0.541868 0.8128,-0.541867 1.6256,-1.828801 l 0.36124,0.158044 q -0.69991,1.828802 -1.94169,2.799648 -1.24178,0.970845 -2.8448,0.970845 -1.94169,0 -3.09316,-1.354668 -1.12889,-1.377246 -1.12889,-3.702759 0,-2.506136 1.30951,-4.018849 1.33209,-1.53529 3.40925,-1.53529 1.71591,0 2.66418,1.038578 0.94827,1.016001 1.19663,3.093159 z m 0.0452,-0.722489 h 4.60587 q -0.22578,-1.467558 -0.69991,-2.032003 -0.47414,-0.564445 -1.51271,-0.564445 -2.03201,0 -2.39325,2.596448 z"
           id="path327" />
        <path
           d="m 240.95316,77.5952 q -0.33867,0 -0.83538,-0.383823 -0.49671,-0.4064 -0.65475,-0.4064 -0.45156,0 -1.016,0.654756 -0.56445,0.654756 -0.56445,1.196624 v 5.080005 q 0,0.970845 0.38382,1.309512 0.38383,0.338667 1.53529,0.383823 v 0.338667 h -5.41867 v -0.338667 q 1.08374,-0.2032 1.33209,-0.451556 0.27094,-0.248356 0.27094,-1.106312 v -5.64445 q 0,-0.745068 -0.18063,-1.038579 -0.15804,-0.31609 -0.58702,-0.31609 -0.36124,0 -0.79022,0.09031 v -0.361245 q 1.80622,-0.587023 3.34151,-1.219201 l 0.11289,0.04515 v 2.077158 q 0.83538,-1.196624 1.4224,-1.64818 0.58702,-0.474133 1.28694,-0.474133 0.58702,0 0.90311,0.316089 0.33867,0.316089 0.33867,0.880534 0,0.474134 -0.24836,0.745067 -0.22578,0.270934 -0.63218,0.270934 z"
           id="path329" />
        <path
           d="m 242.17234,76.782399 v -0.383822 q 1.67076,-0.496712 3.11574,-1.016001 l 0.15804,0.04515 v 1.783646 q 1.15147,-1.083734 1.80623,-1.444979 0.67733,-0.383822 1.46756,-0.383822 1.24177,0 1.94169,0.903112 0.72249,0.880534 0.72249,2.483558 v 5.170316 q 0,0.835379 0.27093,1.12889 0.27093,0.270934 1.10631,0.361245 v 0.338667 h -4.69618 v -0.338667 q 0.85796,-0.06773 1.12889,-0.451556 0.29351,-0.383823 0.29351,-1.444979 v -4.718761 q 0,-2.190046 -1.64818,-2.190046 -0.56444,0 -1.03858,0.270933 -0.47413,0.248356 -1.28693,1.016001 v 6.344362 q 0,0.609601 0.31609,0.857957 0.31609,0.248356 1.17404,0.316089 v 0.338667 h -4.78649 v -0.338667 q 0.85796,-0.06773 1.12889,-0.383823 0.27093,-0.338667 0.27093,-1.309512 v -5.599295 q 0,-0.835378 -0.18062,-1.12889 -0.18062,-0.316089 -0.65476,-0.316089 -0.42897,0 -0.6096,0.09031 z"
           id="path331" />
        <path
           d="m 254.95134,79.514313 q 0.0452,1.422402 0.38382,2.46098 0.33867,1.016001 0.88054,1.535291 0.54186,0.496711 1.08373,0.72249 0.56445,0.2032 1.17405,0.2032 1.08373,0 1.87395,-0.541868 0.8128,-0.541867 1.62561,-1.828801 l 0.36124,0.158044 q -0.69991,1.828802 -1.94169,2.799648 -1.24178,0.970845 -2.8448,0.970845 -1.94169,0 -3.09316,-1.354668 -1.12889,-1.377246 -1.12889,-3.702759 0,-2.506136 1.30951,-4.018849 1.33209,-1.53529 3.40925,-1.53529 1.71591,0 2.66418,1.038578 0.94827,1.016001 1.19662,3.093159 z m 0.0452,-0.722489 h 4.60587 q -0.22578,-1.467558 -0.69992,-2.032003 -0.47413,-0.564445 -1.51271,-0.564445 -2.032,0 -2.39324,2.596448 z"
           id="path333" />
        <path
           d="m 268.40766,75.608354 v 0.722489 h -2.28035 v 6.457251 q 0,1.061157 0.27093,1.557869 0.27093,0.474133 0.90311,0.474133 0.69991,0 1.35467,-0.790223 l 0.29351,0.248356 q -1.08373,1.715913 -2.70933,1.715913 -2.00943,0 -2.00943,-2.867381 v -6.795918 h -1.19662 q -0.0903,-0.06773 -0.0903,-0.158044 0,-0.112889 0.0677,-0.180623 0.0677,-0.06773 0.24836,-0.180622 0.2032,-0.135467 0.47413,-0.338667 0.27093,-0.225778 0.74507,-0.790223 0.47413,-0.564445 1.03858,-1.354668 0.36124,-0.51929 0.45155,-0.632179 0.15805,0 0.15805,0.293512 v 2.619025 z"
           id="path335" />
      </g>
      <g
         aria-label="----------"
         transform="rotate(89.964271)"
         id="text499"
         style="font-size:22.5778px;font-family:FreeSerif;-inkscape-font-specification:FreeSerif;text-align:center;text-anchor:middle;stroke:#b3b3b3;stroke-width:0.3;stroke-linecap:round;stroke-linejoin:round;paint-order:fill markers stroke">
        <path
           d="m 42.797121,-84.80238 h 5.554139 v 1.422401 h -5.554139 z"
           id="path338" />
        <path
           d="m 50.31549,-84.80238 h 5.554139 v 1.422401 H 50.31549 Z"
           id="path340" />
        <path
           d="m 57.833859,-84.80238 h 5.554139 v 1.422401 h -5.554139 z"
           id="path342" />
        <path
           d="m 65.352228,-84.80238 h 5.554139 v 1.422401 h -5.554139 z"
           id="path344" />
        <path
           d="m 72.870596,-84.80238 h 5.554139 v 1.422401 h -5.554139 z"
           id="path346" />
        <path
           d="m 80.388964,-84.80238 h 5.554139 v 1.422401 h -5.554139 z"
           id="path348" />
        <path
           d="m 87.907335,-84.80238 h 5.554139 v 1.422401 h -5.554139 z"
           id="path350" />
        <path
           d="m 95.425703,-84.80238 h 5.554137 v 1.422401 h -5.554137 z"
           id="path352" />
        <path
           d="m 102.94407,-84.80238 h 5.55414 v 1.422401 h -5.55414 z"
           id="path354" />
        <path
           d="m 110.46244,-84.80238 h 5.55414 v 1.422401 h -5.55414 z"
           id="path356" />
      </g>
      <g
         aria-label="----------"
         transform="rotate(89.964271)"
         id="text499-3"
         style="font-size:22.5778px;font-family:FreeSerif;-inkscape-font-specification:FreeSerif;text-align:center;text-anchor:middle;stroke:#b3b3b3;stroke-width:0.3;stroke-linecap:round;stroke-linejoin:round;paint-order:fill markers stroke">
        <path
           d="m 42.487436,-191.42882 h 5.554139 v 1.4224 h -5.554139 z"
           id="path359" />
        <path
           d="m 50.005805,-191.42882 h 5.554139 v 1.4224 h -5.554139 z"
           id="path361" />
        <path
           d="m 57.524174,-191.42882 h 5.554139 v 1.4224 h -5.554139 z"
           id="path363" />
        <path
           d="m 65.042543,-191.42882 h 5.554139 v 1.4224 h -5.554139 z"
           id="path365" />
        <path
           d="m 72.560911,-191.42882 h 5.554139 v 1.4224 h -5.554139 z"
           id="path367" />
        <path
           d="m 80.079279,-191.42882 h 5.554139 v 1.4224 h -5.554139 z"
           id="path369" />
        <path
           d="m 87.597651,-191.42882 h 5.554139 v 1.4224 h -5.554139 z"
           id="path371" />
        <path
           d="m 95.116018,-191.42882 h 5.554142 v 1.4224 h -5.554142 z"
           id="path373" />
        <path
           d="m 102.63439,-191.42882 h 5.55414 v 1.4224 h -5.55414 z"
           id="path375" />
        <path
           d="m 110.15276,-191.42882 h 5.55414 v 1.4224 h -5.55414 z"
           id="path377" />
      </g>
    </g>
  </g>
</svg>
