<?xml version="1.0" encoding="UTF-8" standalone="no"?>
<!-- Created with Inkscape (http://www.inkscape.org/) -->

<svg
   width="116mm"
   height="210mm"
   viewBox="0 0 116 210"
   version="1.1"
   id="svg5"
   sodipodi:docname="layers_of_existence.svg"
   inkscape:version="1.2 (dc2aeda, 2022-05-15)"
   xmlns:inkscape="http://www.inkscape.org/namespaces/inkscape"
   xmlns:sodipodi="http://sodipodi.sourceforge.net/DTD/sodipodi-0.dtd"
   xmlns="http://www.w3.org/2000/svg"
   xmlns:svg="http://www.w3.org/2000/svg">
  <sodipodi:namedview
     id="namedview818"
     pagecolor="#ffffff"
     bordercolor="#000000"
     borderopacity="0.25"
     inkscape:showpageshadow="2"
     inkscape:pageopacity="0.0"
     inkscape:pagecheckerboard="0"
     inkscape:deskcolor="#d1d1d1"
     inkscape:document-units="mm"
     showgrid="false"
     inkscape:zoom="1.0747123"
     inkscape:cx="219.59365"
     inkscape:cy="396.38515"
     inkscape:window-width="1920"
     inkscape:window-height="1024"
     inkscape:window-x="0"
     inkscape:window-y="0"
     inkscape:window-maximized="1"
     inkscape:current-layer="text186" />
  <defs
     id="defs2" />
  <g
     id="layer1">
    <g
       id="g534"
       transform="translate(5.2819712,-24.566179)">
      <path
         id="path1202"
         style="stroke:#b3b3b3;stroke-width:0.209303;stroke-linecap:round;stroke-linejoin:round;paint-order:fill markers stroke"
         d="m 54.113378,57.301281 a 1.3953489,1.3953487 0 0 1 -1.395349,1.395349 1.3953489,1.3953487 0 0 1 -1.395349,-1.395349 1.3953489,1.3953487 0 0 1 1.395349,-1.395349 1.3953489,1.3953487 0 0 1 1.395349,1.395349 z" />
      <path
         id="path1202-7"
         style="stroke:#b3b3b3;stroke-width:0.209303;stroke-linecap:round;stroke-linejoin:round;paint-order:fill markers stroke"
         d="m 54.113378,68.078583 a 1.3953489,1.3953487 0 0 1 -1.395349,1.395348 1.3953489,1.3953487 0 0 1 -1.395349,-1.395348 1.3953489,1.3953487 0 0 1 1.395349,-1.395349 1.3953489,1.3953487 0 0 1 1.395349,1.395349 z" />
      <path
         id="path1202-7-5"
         style="stroke:#b3b3b3;stroke-width:0.209303;stroke-linecap:round;stroke-linejoin:round;paint-order:fill markers stroke"
         d="m 54.113378,78.855881 a 1.3953489,1.3953487 0 0 1 -1.395349,1.395348 1.3953489,1.3953487 0 0 1 -1.395349,-1.395348 1.3953489,1.3953487 0 0 1 1.395349,-1.395349 1.3953489,1.3953487 0 0 1 1.395349,1.395349 z" />
      <path
         id="path1202-7-5-9"
         style="stroke:#b3b3b3;stroke-width:0.209303;stroke-linecap:round;stroke-linejoin:round;paint-order:fill markers stroke"
         d="m 54.113378,89.633186 a 1.3953489,1.3953487 0 0 1 -1.395349,1.395349 1.3953489,1.3953487 0 0 1 -1.395349,-1.395349 1.3953489,1.3953487 0 0 1 1.395349,-1.395348 1.3953489,1.3953487 0 0 1 1.395349,1.395348 z" />
      <path
         id="path1202-7-5-9-2"
         style="stroke:#b3b3b3;stroke-width:0.209303;stroke-linecap:round;stroke-linejoin:round;paint-order:fill markers stroke"
         d="m 54.113378,100.41048 a 1.3953489,1.3953487 0 0 1 -1.395349,1.39535 1.3953489,1.3953487 0 0 1 -1.395349,-1.39535 1.3953489,1.3953487 0 0 1 1.395349,-1.395352 1.3953489,1.3953487 0 0 1 1.395349,1.395352 z" />
      <g
         aria-label="User"
         id="text186"
         style="font-size:9.99683px;font-family:FreeSerif;-inkscape-font-specification:FreeSerif;text-align:center;text-anchor:middle;stroke:#b3b3b3;stroke-width:0.13285;stroke-linecap:round;stroke-linejoin:round;paint-order:fill markers stroke">
        <path
           d="m 45.40537,37.250523 q 0,0.999683 0.369883,1.519518 0.379879,0.509838 1.349572,0.509838 0.559822,0 1.00968,-0.209933 0.449857,-0.21993 0.649793,-0.579816 0.229928,-0.429864 0.229928,-1.359569 v -2.699144 q 0,-0.749762 -0.179943,-0.989686 -0.179943,-0.249921 -0.759759,-0.289908 v -0.18994 h 2.319264 v 0.18994 q -0.619803,0.07997 -0.779753,0.299905 -0.159949,0.21993 -0.159949,0.979689 v 2.609173 q 0,0.589813 -0.109965,1.029673 -0.09997,0.439861 -0.369883,0.839734 -0.259917,0.389876 -0.789749,0.59981 -0.519835,0.209933 -1.289591,0.209933 -1.279595,0 -1.899398,-0.619803 -0.609807,-0.629801 -0.609807,-1.929389 v -3.119011 q 0,-0.549825 -0.159949,-0.699778 -0.149952,-0.149952 -0.739765,-0.199936 v -0.18994 h 2.829102 v 0.18994 q -0.599809,0.04998 -0.759759,0.209933 -0.149952,0.149953 -0.149952,0.689781 z"
           id="path942" />
        <path
           d="m 53.222879,35.181179 q 0.01,0 0.159949,-0.09997 h 0.109965 l 0.03999,1.359569 H 53.382828 Q 53.212882,35.770992 52.962961,35.491081 52.71304,35.21117 52.283177,35.21117 q -0.339893,0 -0.559823,0.189939 -0.209933,0.18994 -0.209933,0.489845 0,0.429864 0.429863,0.679785 l 1.079658,0.639797 q 0.449857,0.269914 0.639797,0.549825 0.199937,0.269915 0.199937,0.639797 0,0.519836 -0.419867,0.899715 -0.40987,0.37988 -0.989686,0.37988 -0.249921,0 -0.669788,-0.08997 -0.419867,-0.08997 -0.519835,-0.08997 -0.149952,0 -0.229927,0.119962 h -0.129959 v -1.559506 h 0.159949 q 0.15995,0.699778 0.37988,0.989686 0.319899,0.40987 0.889718,0.40987 0.379879,0 0.59981,-0.189939 0.229927,-0.199937 0.229927,-0.529832 0,-0.449858 -0.519835,-0.749763 l -0.579817,-0.329895 q -0.639797,-0.359886 -0.909711,-0.689781 -0.259918,-0.329896 -0.259918,-0.749762 0,-0.539829 0.37988,-0.879722 0.389876,-0.349889 0.979689,-0.349889 0.329896,0 0.619804,0.09997 0.289908,0.08997 0.349889,0.08997 z"
           id="path944" />
        <path
           d="m 55.182245,36.810662 q 0.01999,0.629801 0.169946,1.089655 0.149952,0.449857 0.389876,0.679784 0.239924,0.219931 0.479848,0.319899 0.249921,0.08997 0.519835,0.08997 0.479848,0 0.829737,-0.239923 0.359886,-0.239924 0.719772,-0.809744 l 0.159949,0.06998 q -0.309902,0.809743 -0.859727,1.239607 -0.549826,0.429864 -1.259601,0.429864 -0.859727,0 -1.369566,-0.59981 -0.499841,-0.609807 -0.499841,-1.63948 0,-1.109648 0.579816,-1.779436 0.589813,-0.679784 1.509521,-0.679784 0.759759,0 1.179626,0.459854 0.419867,0.449857 0.529832,1.369565 z m 0.01999,-0.319898 h 2.039354 q -0.09997,-0.649794 -0.309902,-0.899715 -0.209934,-0.249921 -0.669788,-0.249921 -0.899715,0 -1.059664,1.149636 z"
           id="path946" />
        <path
           d="m 61.560203,35.960932 q -0.149953,0 -0.369883,-0.169946 -0.21993,-0.179943 -0.289908,-0.179943 -0.199937,0 -0.449857,0.289908 -0.249921,0.289908 -0.249921,0.529832 v 2.249287 q 0,0.429863 0.169946,0.579816 0.169946,0.149952 0.679784,0.169946 v 0.149952 H 58.651125 V 39.429832 Q 59.130973,39.33986 59.240938,39.229895 59.3609,39.11993 59.3609,38.740051 v -2.499208 q 0,-0.329895 -0.07997,-0.459854 -0.06998,-0.139956 -0.259918,-0.139956 -0.159949,0 -0.349889,0.03999 v -0.15995 q 0.799746,-0.259917 1.479531,-0.539828 l 0.04998,0.01999 v 0.919709 q 0.369883,-0.529832 0.6298,-0.729769 0.259918,-0.209933 0.569819,-0.209933 0.259918,0 0.399874,0.139955 0.149952,0.139956 0.149952,0.389877 0,0.209933 -0.109965,0.329895 -0.09997,0.119962 -0.279911,0.119962 z"
           id="path948" />
      </g>
      <g
         aria-label="Mind"
         id="text186-7"
         style="font-size:9.99683px;font-family:FreeSerif;-inkscape-font-specification:FreeSerif;text-align:center;text-anchor:middle;stroke:#b3b3b3;stroke-width:0.13285;stroke-linecap:round;stroke-linejoin:round;paint-order:fill markers stroke">
        <path
           d="m 48.829277,119.19168 -2.559188,5.72818 h -0.139956 l -2.509204,-5.49826 v 4.02873 q 0,0.75976 0.179943,1.00968 0.179943,0.23992 0.759759,0.26991 v 0.18994 h -2.349255 v -0.18994 q 0.619803,-0.04 0.789749,-0.26991 0.179943,-0.23993 0.179943,-1.00968 v -4.05872 q 0,-0.54982 -0.169946,-0.69977 -0.159949,-0.15995 -0.779753,-0.19994 v -0.18994 h 1.979373 l 2.309268,5.0484 2.209299,-5.0484 h 1.989369 v 0.18994 q -0.559822,0.05 -0.719772,0.20993 -0.149952,0.15995 -0.149952,0.68978 v 4.4386 q 0,0.52983 0.159949,0.69977 0.159949,0.15995 0.709775,0.19994 v 0.18994 h -2.799112 v -0.18994 q 0.589813,-0.04 0.749762,-0.20993 0.159949,-0.17995 0.159949,-0.79975 z"
           id="path951" />
        <path
           d="m 51.488421,120.99111 q -0.219931,0 -0.419867,0.03 v -0.14996 q 0.699778,-0.19993 1.549508,-0.54982 l 0.03999,0.03 v 3.54887 q 0,0.53983 0.119962,0.68979 0.129958,0.13995 0.619803,0.17994 v 0.14995 h -2.369249 v -0.14995 q 0.519836,-0.03 0.649794,-0.17994 0.139956,-0.14996 0.139956,-0.68979 v -2.31926 q 0,-0.3299 -0.07998,-0.45985 -0.06998,-0.12996 -0.24992,-0.12996 z m 0.65979,-2.89908 q 0.219931,0 0.369883,0.14995 0.149953,0.14995 0.149953,0.35988 0,0.21993 -0.149953,0.36989 -0.149952,0.13995 -0.369883,0.13995 -0.209933,0 -0.359886,-0.14995 -0.139955,-0.14995 -0.139955,-0.35989 0,-0.20993 0.149952,-0.35988 0.149953,-0.14995 0.349889,-0.14995 z"
           id="path953" />
        <path
           d="m 53.647732,120.94112 v -0.16994 q 0.739766,-0.21993 1.379563,-0.44986 l 0.06998,0.02 v 0.78975 q 0.509838,-0.47985 0.799746,-0.63979 0.299905,-0.16995 0.649794,-0.16995 0.549826,0 0.859727,0.39987 0.319899,0.38988 0.319899,1.09965 v 2.28928 q 0,0.36988 0.119962,0.49984 0.119962,0.11996 0.489844,0.15995 v 0.14995 h -2.07934 v -0.14995 q 0.379879,-0.03 0.499841,-0.19994 0.129959,-0.16994 0.129959,-0.6398 v -2.08933 q 0,-0.9697 -0.729768,-0.9697 -0.249921,0 -0.459855,0.11997 -0.209933,0.10996 -0.569819,0.44985 v 2.80911 q 0,0.26992 0.139956,0.37988 0.139955,0.10997 0.519835,0.13996 v 0.14995 h -2.119328 v -0.14995 q 0.379879,-0.03 0.499841,-0.16995 0.119962,-0.14995 0.119962,-0.57981 v -2.47922 q 0,-0.36988 -0.07997,-0.49984 -0.07997,-0.13995 -0.289908,-0.13995 -0.18994,0 -0.269915,0.04 z"
           id="path955" />
        <path
           d="m 61.755144,125.01983 -0.03999,-0.03 v -0.6398 q -0.479848,0.66979 -1.279594,0.66979 -0.829737,0 -1.339575,-0.58981 -0.509839,-0.59981 -0.509839,-1.55951 0,-1.05966 0.609807,-1.79943 0.609806,-0.74976 1.469534,-0.74976 0.539829,0 1.049667,0.42986 v -1.5595 q 0,-0.3099 -0.08997,-0.40987 -0.08997,-0.1 -0.369882,-0.1 -0.139956,0 -0.21993,0.01 v -0.15995 q 0.909711,-0.23993 1.469534,-0.43986 l 0.04998,0.02 v 5.6682 q 0,0.34989 0.07997,0.45986 0.08997,0.10996 0.359886,0.10996 0.04998,0 0.229927,-0.01 v 0.15995 z m -0.929705,-0.51984 q 0.37988,0 0.6298,-0.20993 0.259918,-0.21993 0.259918,-0.38988 v -2.29927 q 0,-0.39987 -0.309902,-0.69977 -0.309901,-0.29991 -0.709775,-0.29991 -0.569819,0 -0.909711,0.50984 -0.339892,0.50984 -0.339892,1.35957 0,0.91971 0.379879,1.47953 0.37988,0.54982 0.999683,0.54982 z"
           id="path957" />
      </g>
      <g
         aria-label="Human Body"
         id="text186-7-3"
         style="font-size:9.99683px;font-family:FreeSerif;-inkscape-font-specification:FreeSerif;text-align:center;text-anchor:middle;stroke:#b3b3b3;stroke-width:0.13285;stroke-linecap:round;stroke-linejoin:round;paint-order:fill markers stroke">
        <path
           d="m 28.630727,145.51352 h 3.02904 v -1.93938 q 0,-0.53983 -0.149953,-0.68978 -0.149952,-0.15995 -0.729768,-0.20994 v -0.18993 h 2.779118 v 0.18993 q -0.579816,0.05 -0.729768,0.20994 -0.149953,0.14995 -0.149953,0.68978 v 4.43859 q 0,0.52983 0.15995,0.68978 0.159949,0.15995 0.719771,0.20994 v 0.18994 h -2.779118 v -0.18994 q 0.579816,-0.04 0.729768,-0.20994 0.149953,-0.16994 0.149953,-0.79974 v -1.94938 h -3.02904 v 2.05934 q 0,0.52983 0.159949,0.68978 0.15995,0.15995 0.719772,0.20994 v 0.18994 h -2.779119 v -0.18994 q 0.579817,-0.04 0.729769,-0.20994 0.149952,-0.16994 0.149952,-0.79974 v -4.32863 q 0,-0.53983 -0.149952,-0.68978 -0.149952,-0.15995 -0.729769,-0.20994 v -0.18993 h 2.779119 v 0.18993 q -0.579816,0.05 -0.729768,0.20994 -0.149953,0.14995 -0.149953,0.68978 z"
           id="path960" />
        <path
           d="m 38.51758,148.60254 v 0.13996 q -0.779753,0.20993 -1.369566,0.44986 l -0.03999,-0.02 v -0.82973 q -0.02999,0.03 -0.179943,0.17994 -0.139956,0.14995 -0.199937,0.20993 -0.05998,0.05 -0.209933,0.16995 -0.139956,0.10997 -0.249921,0.15995 -0.109965,0.05 -0.279911,0.09 -0.169946,0.05 -0.339892,0.05 -0.549826,0 -0.879721,-0.34988 -0.329896,-0.35989 -0.329896,-0.9497 v -2.5192 q 0,-0.34989 -0.129959,-0.47985 -0.129958,-0.13996 -0.489844,-0.15995 v -0.13996 h 1.459537 v 3.25897 q 0,0.3099 0.209933,0.53983 0.209934,0.21993 0.499842,0.21993 0.109965,0 0.259917,-0.03 0.149953,-0.03 0.339893,-0.10997 0.199936,-0.09 0.329895,-0.26991 0.139956,-0.18994 0.139956,-0.45986 v -2.34925 q 0,-0.36988 -0.139956,-0.48985 -0.129959,-0.11996 -0.59981,-0.13995 v -0.16995 h 1.579499 v 3.42892 q 0,0.34988 0.109965,0.45985 0.109966,0.10996 0.459855,0.10996 z"
           id="path962" />
        <path
           d="m 38.747505,145.12365 v -0.16995 q 0.719772,-0.19993 1.399556,-0.44986 l 0.06998,0.02 v 0.74976 q 0.619803,-0.46985 0.919708,-0.6198 0.299905,-0.14996 0.6298,-0.14996 0.78975,0 1.059664,0.83974 0.779753,-0.83974 1.629484,-0.83974 1.159632,0 1.159632,1.77944 v 2.05935 q 0,0.55982 0.429864,0.58981 l 0.259917,0.02 v 0.14996 h -2.189305 v -0.14996 q 0.43986,-0.05 0.549825,-0.16994 0.109965,-0.11996 0.109965,-0.54983 v -2.10933 q 0,-0.6198 -0.159949,-0.85973 -0.159949,-0.23992 -0.589813,-0.23992 -0.659791,0 -1.089654,0.60981 v 2.5192 q 0,0.46985 0.139955,0.6298 0.149953,0.15995 0.579816,0.16994 v 0.14996 h -2.23929 v -0.14996 q 0.429864,-0.03 0.549826,-0.15995 0.129959,-0.12995 0.129959,-0.54982 v -2.16931 q 0,-1.04967 -0.659791,-1.04967 -0.279911,0 -0.6298,0.13996 -0.339892,0.13995 -0.549826,0.44985 v 2.81911 q 0,0.28991 0.139956,0.39987 0.139955,0.1 0.539829,0.11996 v 0.14996 h -2.219297 v -0.14996 q 0.419867,-0.01 0.559823,-0.14995 0.139955,-0.13995 0.139955,-0.54982 v -2.5292 q 0,-0.35989 -0.07997,-0.49984 -0.06998,-0.13996 -0.269915,-0.13996 -0.149952,0 -0.319898,0.04 z"
           id="path964" />
        <path
           d="m 46.604995,148.13269 q 0,-0.17994 0.03999,-0.32989 0.03999,-0.15995 0.139956,-0.28991 0.09997,-0.13996 0.189939,-0.24992 0.08997,-0.10997 0.269915,-0.21993 0.179943,-0.11996 0.299905,-0.18994 0.119962,-0.08 0.359886,-0.17994 0.24992,-0.10997 0.379879,-0.15995 0.129959,-0.06 0.40987,-0.16995 0.279911,-0.10996 0.40987,-0.15995 v -0.6098 q 0,-0.82974 -0.759759,-0.82974 -0.299905,0 -0.509838,0.14995 -0.209934,0.13996 -0.209934,0.33989 0,0.08 0.01999,0.21993 0.02999,0.13996 0.02999,0.17995 0,0.16994 -0.139955,0.2999 -0.129959,0.11996 -0.309902,0.11996 -0.169946,0 -0.299905,-0.12996 -0.129959,-0.12995 -0.129959,-0.2999 0,-0.46985 0.479848,-0.78975 0.489845,-0.3299 1.19962,-0.3299 0.81974,0 1.129642,0.39988 0.309901,0.38987 0.309901,1.19962 v 1.94938 q 0,0.32989 0.05998,0.45985 0.06998,0.11997 0.239924,0.11997 0.209934,0 0.439861,-0.18994 v 0.25991 q -0.259918,0.28991 -0.459854,0.39988 -0.18994,0.1 -0.439861,0.1 -0.309902,0 -0.459854,-0.16994 -0.139956,-0.16995 -0.179943,-0.55982 -0.859727,0.72976 -1.459537,0.72976 -0.459854,0 -0.759759,-0.2999 -0.289908,-0.29991 -0.289908,-0.76976 z m 2.499207,-0.25991 v -1.44954 q -0.899715,0.32989 -1.2596,0.63979 -0.359886,0.3099 -0.359886,0.74977 0,0.40987 0.199936,0.6098 0.199937,0.19994 0.429864,0.19994 0.339892,0 0.729769,-0.22993 0.159949,-0.09 0.209933,-0.18994 0.04998,-0.1 0.04998,-0.32989 z"
           id="path966" />
        <path
           d="m 50.803658,145.12365 v -0.16995 q 0.739765,-0.21993 1.379562,-0.44986 l 0.06998,0.02 v 0.78975 q 0.509839,-0.47985 0.799747,-0.6398 0.299904,-0.16995 0.649794,-0.16995 0.549825,0 0.859727,0.39988 0.319898,0.38987 0.319898,1.09965 v 2.28927 q 0,0.36989 0.119962,0.49984 0.119962,0.11997 0.489845,0.15995 v 0.14996 H 53.41283 v -0.14996 q 0.37988,-0.03 0.499842,-0.19993 0.129959,-0.16995 0.129959,-0.6398 v -2.08934 q 0,-0.96969 -0.729769,-0.96969 -0.249921,0 -0.459854,0.11996 -0.209933,0.10997 -0.569819,0.44986 v 2.80911 q 0,0.26991 0.139955,0.37988 0.139956,0.10996 0.519835,0.13995 v 0.14996 h -2.119328 v -0.14996 q 0.37988,-0.03 0.499842,-0.16994 0.119962,-0.14995 0.119962,-0.57982 v -2.47921 q 0,-0.36988 -0.07997,-0.49984 -0.07997,-0.13996 -0.289908,-0.13996 -0.18994,0 -0.269914,0.04 z"
           id="path968" />
        <path
           d="m 63.999439,147.30296 q 0,0.2999 -0.109965,0.58981 -0.109965,0.28991 -0.369883,0.57982 -0.249921,0.27991 -0.749762,0.45985 -0.499842,0.16995 -1.189623,0.16995 h -3.338941 v -0.18994 q 0.619803,-0.02 0.789749,-0.17995 0.169946,-0.15995 0.169946,-0.71977 v -4.43859 q 0,-0.54983 -0.169946,-0.69978 -0.159949,-0.15995 -0.789749,-0.19994 v -0.18993 h 2.799112 q 2.61917,0 2.61917,1.69946 0,0.32989 -0.119962,0.58981 -0.119962,0.24992 -0.249921,0.38988 -0.119962,0.12995 -0.37988,0.24992 -0.259917,0.11996 -0.329895,0.13995 -0.06998,0.01 -0.289908,0.07 0.229927,0.06 0.339892,0.09 0.119962,0.03 0.419867,0.16995 0.309902,0.13995 0.479848,0.2999 0.169946,0.15995 0.319898,0.45986 0.149953,0.2899 0.149953,0.65979 z m -3.149002,1.42954 q 0.449858,0 0.779753,-0.06 0.329896,-0.06 0.619804,-0.19993 0.289908,-0.14996 0.43986,-0.43986 0.159949,-0.28991 0.159949,-0.71978 0,-0.40987 -0.159949,-0.68978 -0.149952,-0.28991 -0.369883,-0.43986 -0.21993,-0.14995 -0.609806,-0.22992 -0.389877,-0.08 -0.689781,-0.09 -0.299905,-0.02 -0.799747,-0.02 v 2.47921 q 0,0.23993 0.129959,0.3299 0.129959,0.08 0.499841,0.08 z m -0.6298,-3.28895 h 0.949699 q 0.699778,0 1.079658,-0.30991 0.389876,-0.31989 0.389876,-0.90971 0,-0.66978 -0.449857,-1.01967 -0.449858,-0.34989 -1.309585,-0.34989 h -0.439861 q -0.21993,0 -0.21993,0.2999 z"
           id="path970" />
        <path
           d="m 66.858518,144.50384 q 0.959696,0 1.579499,0.6398 0.619803,0.6398 0.619803,1.61949 0,1.03967 -0.639797,1.73945 -0.639797,0.69977 -1.579499,0.69977 -0.939702,0 -1.569502,-0.66978 -0.619804,-0.67979 -0.619804,-1.68947 0,-1.02967 0.609807,-1.67946 0.619804,-0.6598 1.599493,-0.6598 z m -1.309585,1.84942 q 0,1.06966 0.389876,1.81942 0.389877,0.74976 1.019677,0.74976 0.559823,0 0.879721,-0.47984 0.319899,-0.47985 0.319899,-1.32958 0,-1.02968 -0.399873,-1.67947 -0.399874,-0.64979 -1.029674,-0.64979 -0.529832,0 -0.859727,0.42986 -0.319899,0.42986 -0.319899,1.13964 z"
           id="path972" />
        <path
           d="m 72.726649,149.20235 -0.03999,-0.03 v -0.63979 q -0.479848,0.66978 -1.279594,0.66978 -0.829737,0 -1.339575,-0.58981 -0.509839,-0.59981 -0.509839,-1.5595 0,-1.05967 0.609807,-1.79943 0.609807,-0.74977 1.469534,-0.74977 0.539829,0 1.049667,0.42987 v -1.55951 q 0,-0.3099 -0.08997,-0.40987 -0.08997,-0.1 -0.369883,-0.1 -0.139956,0 -0.21993,0.01 v -0.15995 q 0.909711,-0.23992 1.469534,-0.43986 l 0.04998,0.02 v 5.6682 q 0,0.34989 0.07997,0.45985 0.08997,0.10997 0.359886,0.10997 0.04998,0 0.229927,-0.01 v 0.15995 z m -0.929705,-0.51983 q 0.37988,0 0.6298,-0.20993 0.259918,-0.21993 0.259918,-0.38988 v -2.29927 q 0,-0.39987 -0.309902,-0.69978 -0.309901,-0.2999 -0.709775,-0.2999 -0.569819,0 -0.909711,0.50983 -0.339892,0.50984 -0.339892,1.35957 0,0.91971 0.379879,1.47953 0.37988,0.54983 0.999683,0.54983 z"
           id="path974" />
        <path
           d="m 75.465752,150.44196 q 0.279911,0 0.589812,-0.6198 0.309902,-0.61981 0.309902,-0.90971 0,-0.12996 -0.43986,-1.00968 l -1.319582,-2.8391 q -0.119962,-0.25992 -0.509838,-0.3199 v -0.13996 h 2.059347 v 0.14996 q -0.319899,0.01 -0.449858,0.07 -0.129958,0.06 -0.129958,0.19994 0,0.14995 0.09997,0.37988 l 1.149635,2.5292 0.969693,-2.75913 q 0.03999,-0.09 0.03999,-0.16994 0,-0.24992 -0.479848,-0.24992 v -0.14996 h 1.349572 v 0.14996 q -0.179943,0.02 -0.289908,0.11996 -0.09997,0.09 -0.189939,0.32989 l -1.539512,4.07871 q -0.399873,1.07966 -0.799747,1.53951 -0.389876,0.45986 -0.889717,0.45986 -0.319899,0 -0.529832,-0.16995 -0.209934,-0.15995 -0.209934,-0.40987 0,-0.17994 0.129959,-0.3099 0.129959,-0.12996 0.299905,-0.12996 0.21993,0 0.469851,0.09 0.249921,0.09 0.309902,0.09 z"
           id="path976" />
      </g>
      <g
         aria-label="Computer"
         id="text186-7-6-9"
         style="font-size:9.99683px;font-family:FreeSerif;-inkscape-font-specification:FreeSerif;text-align:center;text-anchor:middle;stroke:#b3b3b3;stroke-width:0.13285;stroke-linecap:round;stroke-linejoin:round;paint-order:fill markers stroke">
        <path
           d="m 33.064305,172.04531 q 0,-1.5595 0.959696,-2.5292 0.959695,-0.97969 2.389242,-0.97969 0.639797,0 1.19962,0.16995 0.559822,0.15995 0.649794,0.15995 0.329895,0 0.419866,-0.3299 h 0.209934 l 0.08997,2.25929 h -0.229927 q -0.549825,-1.85941 -2.149318,-1.85941 -1.089655,0 -1.739449,0.80974 -0.639797,0.80974 -0.639797,2.16931 0,0.86973 0.219931,1.50952 0.229927,0.6298 0.609806,0.9597 0.37988,0.3199 0.779753,0.46985 0.40987,0.13996 0.869724,0.13996 1.179626,0 2.229293,-1.00968 l 0.179943,0.17994 q -0.459854,0.60981 -1.169629,0.9397 -0.709775,0.3299 -1.559505,0.3299 -1.479531,0 -2.39924,-0.92971 -0.919708,-0.9297 -0.919708,-2.45922 z"
           id="path979" />
        <path
           d="m 41.871494,170.69574 q 0.959696,0 1.579499,0.6398 0.619804,0.63979 0.619804,1.61948 0,1.03967 -0.639798,1.73945 -0.639797,0.69978 -1.579499,0.69978 -0.939702,0 -1.569502,-0.66979 -0.619803,-0.67978 -0.619803,-1.68946 0,-1.02968 0.609806,-1.67947 0.619804,-0.65979 1.599493,-0.65979 z m -1.309585,1.84941 q 0,1.06966 0.389877,1.81943 0.389876,0.74976 1.019676,0.74976 0.559823,0 0.879721,-0.47985 0.319899,-0.47985 0.319899,-1.32958 0,-1.02967 -0.399873,-1.67947 -0.399873,-0.64979 -1.029674,-0.64979 -0.529832,0 -0.859727,0.42986 -0.319899,0.42987 -0.319899,1.13964 z"
           id="path981" />
        <path
           d="m 44.350698,171.31554 v -0.16994 q 0.719771,-0.19994 1.399556,-0.44986 l 0.06998,0.02 v 0.74977 q 0.619803,-0.46986 0.919708,-0.61981 0.299905,-0.14995 0.6298,-0.14995 0.78975,0 1.059664,0.83973 0.779753,-0.83973 1.629484,-0.83973 1.159632,0 1.159632,1.77943 v 2.05935 q 0,0.55982 0.429864,0.58981 l 0.259917,0.02 v 0.14995 h -2.189306 v -0.14995 q 0.439861,-0.05 0.549826,-0.16995 0.109965,-0.11996 0.109965,-0.54982 v -2.10933 q 0,-0.61981 -0.159949,-0.85973 -0.159949,-0.23993 -0.589813,-0.23993 -0.659791,0 -1.089655,0.60981 v 2.5192 q 0,0.46985 0.139956,0.6298 0.149952,0.15995 0.579816,0.16995 v 0.14995 h -2.23929 v -0.14995 q 0.429864,-0.03 0.549826,-0.15995 0.129959,-0.12996 0.129959,-0.54983 v -2.16931 q 0,-1.04967 -0.659791,-1.04967 -0.279911,0 -0.6298,0.13996 -0.339893,0.13996 -0.549826,0.44986 v 2.8191 q 0,0.28991 0.139956,0.39988 0.139955,0.1 0.539828,0.11996 v 0.14995 h -2.219296 v -0.14995 q 0.419867,-0.01 0.559823,-0.14995 0.139955,-0.13996 0.139955,-0.54983 v -2.5292 q 0,-0.35988 -0.07997,-0.49984 -0.06998,-0.13995 -0.269915,-0.13995 -0.149952,0 -0.319898,0.04 z"
           id="path983" />
        <path
           d="m 52.148218,171.36553 v -0.15995 q 0.6298,-0.18994 1.439543,-0.50984 l 0.05998,0.02 v 0.76976 q 0.639797,-0.78975 1.439544,-0.78975 0.729768,0 1.199619,0.59981 0.469851,0.59981 0.469851,1.52951 0,1.08966 -0.609806,1.82942 -0.59981,0.73977 -1.489528,0.73977 -0.319899,0 -0.539829,-0.09 -0.209933,-0.09 -0.469851,-0.33989 v 1.5695 q 0,0.46985 0.15995,0.59981 0.159949,0.13995 0.719771,0.14995 v 0.17994 H 52.10823 v -0.16994 q 0.439861,-0.04 0.56982,-0.16995 0.129959,-0.12996 0.129959,-0.51983 v -4.67852 q 0,-0.34989 -0.07997,-0.45985 -0.07997,-0.10997 -0.329896,-0.10997 -0.159949,0 -0.24992,0.01 z m 1.499524,0.58981 v 2.45922 q 0,0.21993 0.339892,0.43986 0.349889,0.21993 0.699779,0.21993 0.539828,0 0.869724,-0.50984 0.339892,-0.51983 0.339892,-1.34957 0,-0.86972 -0.339892,-1.38956 -0.329896,-0.52983 -0.889718,-0.52983 -0.349889,0 -0.689781,0.21993 -0.329896,0.21993 -0.329896,0.43986 z"
           id="path985" />
        <path
           d="m 61.705167,174.79444 v 0.13996 q -0.779753,0.20993 -1.369566,0.44985 l -0.03999,-0.02 v -0.82974 q -0.02999,0.03 -0.179943,0.17994 -0.139956,0.14996 -0.199937,0.20994 -0.05998,0.05 -0.209933,0.16994 -0.139956,0.10997 -0.249921,0.15995 -0.109965,0.05 -0.279911,0.09 -0.169947,0.05 -0.339893,0.05 -0.549825,0 -0.879721,-0.34989 -0.329895,-0.35989 -0.329895,-0.9497 v -2.5192 q 0,-0.34989 -0.129959,-0.47985 -0.129959,-0.13995 -0.489845,-0.15995 v -0.13995 h 1.459538 v 3.25896 q 0,0.30991 0.209933,0.53983 0.209934,0.21993 0.499842,0.21993 0.109965,0 0.259917,-0.03 0.149953,-0.03 0.339892,-0.10996 0.199937,-0.09 0.329896,-0.26992 0.139955,-0.18994 0.139955,-0.45985 v -2.34926 q 0,-0.36988 -0.139955,-0.48984 -0.129959,-0.11996 -0.59981,-0.13996 v -0.16994 h 1.579499 v 3.42891 q 0,0.34989 0.109965,0.45985 0.109965,0.10997 0.459854,0.10997 z"
           id="path987" />
        <path
           d="m 64.39431,170.79571 v 0.3199 h -1.009679 v 2.85909 q 0,0.46985 0.119961,0.68978 0.119962,0.20993 0.399874,0.20993 0.309901,0 0.599809,-0.34988 l 0.129959,0.10996 q -0.479848,0.75976 -1.199619,0.75976 -0.889718,0 -0.889718,-1.2696 v -3.00904 h -0.529832 q -0.03999,-0.03 -0.03999,-0.07 0,-0.05 0.02999,-0.08 0.02999,-0.03 0.109965,-0.08 0.08997,-0.06 0.209934,-0.14995 0.119962,-0.1 0.329895,-0.34989 0.209933,-0.24992 0.459854,-0.59981 0.159949,-0.22993 0.199937,-0.27991 0.06998,0 0.06998,0.12996 v 1.15963 z"
           id="path989" />
        <path
           d="m 65.603918,172.52516 q 0.01999,0.6298 0.169946,1.08965 0.149952,0.44986 0.389876,0.67979 0.239924,0.21993 0.479848,0.3199 0.249921,0.09 0.519835,0.09 0.479848,0 0.829737,-0.23993 0.359886,-0.23992 0.719772,-0.80974 l 0.159949,0.07 q -0.309901,0.80974 -0.859727,1.23961 -0.549826,0.42986 -1.259601,0.42986 -0.859727,0 -1.369565,-0.59981 -0.499842,-0.60981 -0.499842,-1.63948 0,-1.10965 0.579816,-1.77944 0.589813,-0.67978 1.509522,-0.67978 0.759759,0 1.179625,0.45985 0.419867,0.44986 0.529832,1.36957 z m 0.01999,-0.3199 h 2.039354 q -0.09997,-0.64979 -0.309902,-0.89971 -0.209933,-0.24992 -0.669788,-0.24992 -0.899714,0 -1.059664,1.14963 z"
           id="path991" />
        <path
           d="m 71.981877,171.67543 q -0.149952,0 -0.369883,-0.16995 -0.21993,-0.17994 -0.289908,-0.17994 -0.199936,0 -0.449857,0.28991 -0.249921,0.28991 -0.249921,0.52983 v 2.24929 q 0,0.42986 0.169946,0.57981 0.169946,0.14995 0.679785,0.16995 v 0.14995 h -2.39924 v -0.14995 q 0.479848,-0.09 0.589813,-0.19994 0.119962,-0.10996 0.119962,-0.48984 v -2.49921 q 0,-0.3299 -0.07997,-0.45985 -0.06998,-0.13996 -0.259918,-0.13996 -0.159949,0 -0.349889,0.04 v -0.15995 q 0.799747,-0.25992 1.479531,-0.53983 l 0.04998,0.02 v 0.91971 q 0.369883,-0.52983 0.6298,-0.72977 0.259918,-0.20993 0.56982,-0.20993 0.259917,0 0.399873,0.13995 0.149952,0.13996 0.149952,0.38988 0,0.20993 -0.109965,0.3299 -0.09997,0.11996 -0.279911,0.11996 z"
           id="path993" />
      </g>
      <g
         aria-label="OSI Layers"
         id="text186-7-6-9-2"
         style="font-size:9.99683px;font-family:FreeSerif;-inkscape-font-specification:FreeSerif;text-align:center;text-anchor:middle;stroke:#b3b3b3;stroke-width:0.13285;stroke-linecap:round;stroke-linejoin:round;paint-order:fill markers stroke">
        <path
           d="m 34.04401,200.60936 q -1.349572,0 -2.279277,-0.9497 -0.929705,-0.95969 -0.929705,-2.4992 0,-1.50953 0.919708,-2.47922 0.919708,-0.96969 2.349255,-0.96969 1.439543,0 2.349255,0.96969 0.919708,0.9597 0.919708,2.5192 0,1.50952 -0.929705,2.45922 -0.919708,0.9497 -2.399239,0.9497 z m 2.189306,-3.41891 q 0,-0.71978 -0.139956,-1.2796 -0.139956,-0.55982 -0.359886,-0.89971 -0.209933,-0.3399 -0.499841,-0.55983 -0.289908,-0.21993 -0.56982,-0.2999 -0.269914,-0.08 -0.559822,-0.08 -0.489845,0 -0.879721,0.20994 -0.389876,0.20993 -0.619804,0.52983 -0.21993,0.3099 -0.369882,0.73977 -0.149953,0.42986 -0.209934,0.82973 -0.04998,0.38988 -0.04998,0.79975 0,0.50984 0.09997,0.99968 0.09997,0.48985 0.319899,0.97969 0.21993,0.48985 0.649794,0.78975 0.43986,0.29991 1.03967,0.29991 0.609807,0 1.049667,-0.29991 0.449858,-0.2999 0.669788,-0.78975 0.229927,-0.48984 0.329895,-0.97969 0.09997,-0.48984 0.09997,-0.98968 z"
           id="path996" />
        <path
           d="m 41.501635,199.11983 q 0,-0.46985 -0.329895,-0.82973 -0.329895,-0.36989 -0.799746,-0.6298 -0.469851,-0.25992 -0.939702,-0.52984 -0.459855,-0.27991 -0.78975,-0.70977 -0.329895,-0.42986 -0.329895,-0.99968 0,-0.75976 0.509838,-1.22961 0.519835,-0.47985 1.219613,-0.47985 0.419867,0 0.909712,0.16995 0.489844,0.16994 0.589813,0.16994 0.259917,0 0.319898,-0.33989 h 0.209934 l 0.21993,2.12932 h -0.249921 q -0.239924,-0.87972 -0.739765,-1.29958 -0.489845,-0.41987 -1.089655,-0.41987 -0.459854,0 -0.749762,0.25992 -0.289908,0.25991 -0.289908,0.66978 0,0.39988 0.339892,0.75976 0.339892,0.35989 1.129642,0.79975 0.989686,0.52983 1.429547,1.04967 0.43986,0.50984 0.43986,1.12964 0,0.76975 -0.589813,1.29959 -0.589813,0.51983 -1.44954,0.51983 -0.499842,0 -1.019677,-0.16994 -0.509838,-0.16995 -0.6298,-0.16995 -0.109965,0 -0.18994,0.1 -0.07997,0.09 -0.08997,0.22992 h -0.219931 l -0.299904,-2.11932 h 0.229927 q 0.369882,0.90971 0.859727,1.33957 0.489845,0.42987 1.159632,0.42987 0.549826,0 0.889718,-0.30991 0.339892,-0.31989 0.339892,-0.81974 z"
           id="path998" />
        <path
           d="m 44.130795,199.37975 v -4.43859 q 0,-0.54983 -0.169946,-0.69978 -0.159949,-0.15995 -0.799747,-0.19994 v -0.18994 h 2.969059 v 0.18994 q -0.6298,0.03 -0.809743,0.18994 -0.169946,0.15995 -0.169946,0.70978 v 4.43859 q 0,0.54983 0.179942,0.71977 0.179943,0.15995 0.799747,0.17995 v 0.18994 h -2.969059 v -0.18994 q 0.629801,-0.02 0.799747,-0.17995 0.169946,-0.15995 0.169946,-0.71977 z"
           id="path1000" />
        <path
           d="m 52.348166,200.07953 q 0.259917,0 0.479848,-0.03 0.229927,-0.03 0.399873,-0.06 0.169946,-0.04 0.329895,-0.11996 0.159949,-0.08 0.259918,-0.12996 0.09997,-0.05 0.199936,-0.15995 0.109965,-0.11996 0.15995,-0.16995 0.05998,-0.05 0.129958,-0.17994 0.06998,-0.13996 0.08997,-0.17994 0.01999,-0.04 0.07997,-0.16995 0.05998,-0.13996 0.05998,-0.14995 h 0.249921 l -0.479848,1.73945 H 48.92925 v -0.18994 q 0.549826,-0.04 0.709775,-0.19994 0.159949,-0.16995 0.159949,-0.69978 v -4.43859 q 0,-0.52983 -0.159949,-0.68978 -0.159949,-0.16995 -0.709775,-0.20994 v -0.18994 h 2.819106 v 0.18994 q -0.589813,0.04 -0.759759,0.20994 -0.169946,0.15995 -0.169946,0.68978 v 4.7285 q 0,0.25992 0.149952,0.33989 0.159949,0.07 0.709775,0.07 z"
           id="path1002" />
        <path
           d="m 55.137264,199.49971 q 0,-0.17994 0.03999,-0.32989 0.03999,-0.15995 0.139956,-0.28991 0.09997,-0.13996 0.189939,-0.24992 0.08997,-0.10997 0.269915,-0.21993 0.179943,-0.11996 0.299905,-0.18994 0.119962,-0.08 0.359886,-0.17994 0.24992,-0.10997 0.379879,-0.15995 0.129959,-0.06 0.40987,-0.16995 0.279911,-0.10996 0.40987,-0.15995 v -0.6098 q 0,-0.82974 -0.759759,-0.82974 -0.299905,0 -0.509838,0.14995 -0.209934,0.13996 -0.209934,0.33989 0,0.08 0.01999,0.21993 0.02999,0.13996 0.02999,0.17995 0,0.16994 -0.139956,0.2999 -0.129959,0.11996 -0.309902,0.11996 -0.169946,0 -0.299905,-0.12996 -0.129958,-0.12995 -0.129958,-0.2999 0,-0.46985 0.479847,-0.78975 0.489845,-0.3299 1.19962,-0.3299 0.81974,0 1.129642,0.39988 0.309901,0.38987 0.309901,1.19962 v 1.94938 q 0,0.32989 0.05998,0.45985 0.06998,0.11997 0.239924,0.11997 0.209934,0 0.439861,-0.18994 v 0.25991 q -0.259918,0.28991 -0.459854,0.39988 -0.18994,0.1 -0.439861,0.1 -0.309902,0 -0.459854,-0.16994 -0.139956,-0.16995 -0.179943,-0.55982 -0.859727,0.72976 -1.459537,0.72976 -0.459854,0 -0.759759,-0.2999 -0.289908,-0.29991 -0.289908,-0.76976 z m 2.499207,-0.25991 v -1.44954 q -0.899714,0.32989 -1.2596,0.63979 -0.359886,0.3099 -0.359886,0.74977 0,0.40987 0.199936,0.6098 0.199937,0.19994 0.429864,0.19994 0.339892,0 0.729769,-0.22993 0.159949,-0.09 0.209933,-0.18994 0.04998,-0.1 0.04998,-0.32989 z"
           id="path1004" />
        <path
           d="m 60.405573,201.80898 q 0.279912,0 0.589813,-0.6198 0.309902,-0.61981 0.309902,-0.90971 0,-0.12996 -0.43986,-1.00968 l -1.319582,-2.8391 q -0.119962,-0.25992 -0.509838,-0.3199 v -0.13996 h 2.059347 v 0.14996 q -0.319899,0.01 -0.449858,0.07 -0.129959,0.06 -0.129959,0.19994 0,0.14995 0.09997,0.37988 l 1.149635,2.5292 0.969693,-2.75913 q 0.03999,-0.09 0.03999,-0.16994 0,-0.24992 -0.479848,-0.24992 v -0.14996 h 1.349572 v 0.14996 q -0.179943,0.02 -0.289908,0.11996 -0.09997,0.09 -0.18994,0.32989 l -1.539511,4.07871 q -0.399874,1.07966 -0.799747,1.53951 -0.389876,0.45986 -0.889718,0.45986 -0.319898,0 -0.529832,-0.16995 -0.209933,-0.15995 -0.209933,-0.40987 0,-0.17994 0.129959,-0.3099 0.129958,-0.12996 0.299905,-0.12996 0.21993,0 0.469851,0.09 0.24992,0.09 0.309901,0.09 z"
           id="path1006" />
        <path
           d="m 64.464269,197.70028 q 0.01999,0.6298 0.169946,1.08966 0.149952,0.44986 0.389876,0.67978 0.239924,0.21993 0.479848,0.3199 0.249921,0.09 0.519835,0.09 0.479848,0 0.829737,-0.23992 0.359886,-0.23992 0.719772,-0.80974 l 0.159949,0.07 q -0.309902,0.80975 -0.859727,1.23961 -0.549826,0.42986 -1.259601,0.42986 -0.859727,0 -1.369566,-0.59981 -0.499841,-0.6098 -0.499841,-1.63948 0,-1.10964 0.579816,-1.77943 0.589813,-0.67979 1.509521,-0.67979 0.759759,0 1.179626,0.45986 0.419867,0.44986 0.529832,1.36956 z m 0.01999,-0.31989 h 2.039354 q -0.09997,-0.6498 -0.309902,-0.89972 -0.209934,-0.24992 -0.669788,-0.24992 -0.899715,0 -1.059664,1.14964 z"
           id="path1008" />
        <path
           d="m 70.842226,196.85055 q -0.149953,0 -0.369883,-0.16994 -0.21993,-0.17995 -0.289908,-0.17995 -0.199937,0 -0.449857,0.28991 -0.249921,0.28991 -0.249921,0.52983 v 2.24929 q 0,0.42987 0.169946,0.57982 0.169946,0.14995 0.679784,0.16994 v 0.14996 h -2.399239 v -0.14996 q 0.479848,-0.09 0.589813,-0.19993 0.119962,-0.10997 0.119962,-0.48985 v -2.49921 q 0,-0.32989 -0.07997,-0.45985 -0.06998,-0.13995 -0.259918,-0.13995 -0.159949,0 -0.349889,0.04 v -0.15995 q 0.799746,-0.25991 1.479531,-0.53983 l 0.04998,0.02 v 0.91971 q 0.369883,-0.52984 0.6298,-0.72977 0.259918,-0.20994 0.56982,-0.20994 0.259917,0 0.399873,0.13996 0.149952,0.13996 0.149952,0.38988 0,0.20993 -0.109965,0.32989 -0.09997,0.11996 -0.279911,0.11996 z"
           id="path1010" />
        <path
           d="m 73.961233,196.0708 q 0.01,0 0.159949,-0.1 h 0.109965 l 0.03999,1.35957 h -0.149952 q -0.169946,-0.66979 -0.419867,-0.9497 -0.249921,-0.27991 -0.679784,-0.27991 -0.339893,0 -0.559823,0.18994 -0.209933,0.18994 -0.209933,0.48985 0,0.42986 0.429863,0.67978 l 1.079658,0.6398 q 0.449857,0.26991 0.639797,0.54982 0.199937,0.26992 0.199937,0.6398 0,0.51984 -0.419867,0.89971 -0.40987,0.37988 -0.989686,0.37988 -0.249921,0 -0.669788,-0.09 -0.419867,-0.09 -0.519835,-0.09 -0.149953,0 -0.229927,0.11996 h -0.129959 v -1.5595 h 0.159949 q 0.15995,0.69978 0.37988,0.98968 0.319898,0.40987 0.889718,0.40987 0.379879,0 0.599809,-0.18994 0.229928,-0.19993 0.229928,-0.52983 0,-0.44985 -0.519836,-0.74976 l -0.579816,-0.3299 q -0.639797,-0.35988 -0.909711,-0.68978 -0.259918,-0.32989 -0.259918,-0.74976 0,-0.53983 0.37988,-0.87972 0.389876,-0.34989 0.979689,-0.34989 0.329895,0 0.619804,0.1 0.289908,0.09 0.349889,0.09 z"
           id="path1012" />
      </g>
      <g
         aria-label="Internet"
         id="text186-7-6-9-0"
         style="font-size:9.99683px;font-family:FreeSerif;-inkscape-font-specification:FreeSerif;text-align:center;text-anchor:middle;stroke:#b3b3b3;stroke-width:0.13285;stroke-linecap:round;stroke-linejoin:round;paint-order:fill markers stroke">
        <path
           d="m 38.422613,224.42493 v -4.43859 q 0,-0.54983 -0.169946,-0.69978 -0.15995,-0.15995 -0.799747,-0.19993 v -0.18994 h 2.969059 v 0.18994 q -0.629801,0.03 -0.809744,0.18994 -0.169946,0.15994 -0.169946,0.70977 v 4.43859 q 0,0.54983 0.179943,0.71977 0.179943,0.15995 0.799747,0.17995 v 0.18994 H 37.45292 v -0.18994 q 0.6298,-0.02 0.799747,-0.17995 0.169946,-0.15994 0.169946,-0.71977 z"
           id="path1015" />
        <path
           d="m 40.671896,221.53585 v -0.16995 q 0.739765,-0.21993 1.379563,-0.44985 l 0.06998,0.02 v 0.78975 q 0.509839,-0.47985 0.799747,-0.6398 0.299905,-0.16994 0.649794,-0.16994 0.549825,0 0.859727,0.39987 0.319899,0.38988 0.319899,1.09965 v 2.28927 q 0,0.36989 0.119962,0.49985 0.119962,0.11996 0.489844,0.15994 v 0.14996 h -2.07934 v -0.14996 q 0.379879,-0.03 0.499841,-0.19993 0.129959,-0.16995 0.129959,-0.6398 v -2.08934 q 0,-0.96969 -0.729769,-0.96969 -0.24992,0 -0.459854,0.11996 -0.209933,0.10997 -0.569819,0.44986 v 2.80911 q 0,0.26991 0.139955,0.37988 0.139956,0.10996 0.519836,0.13995 v 0.14996 H 40.69189 v -0.14996 q 0.379879,-0.03 0.499841,-0.16994 0.119962,-0.14995 0.119962,-0.57982 v -2.47921 q 0,-0.36988 -0.07997,-0.49984 -0.07997,-0.13996 -0.289908,-0.13996 -0.189939,0 -0.269914,0.04 z"
           id="path1017" />
        <path
           d="m 47.999546,221.01601 v 0.3199 h -1.00968 v 2.8591 q 0,0.46985 0.119962,0.68978 0.119962,0.20993 0.399873,0.20993 0.309902,0 0.59981,-0.34989 l 0.129959,0.10997 q -0.479848,0.75976 -1.19962,0.75976 -0.889718,0 -0.889718,-1.2696 v -3.00905 H 45.6203 q -0.03999,-0.03 -0.03999,-0.07 0,-0.05 0.02999,-0.08 0.02999,-0.03 0.109965,-0.08 0.08997,-0.06 0.209934,-0.14996 0.119962,-0.1 0.329895,-0.34989 0.209934,-0.24992 0.459854,-0.59981 0.15995,-0.22992 0.199937,-0.27991 0.06998,0 0.06998,0.12996 v 1.15963 z"
           id="path1019" />
        <path
           d="m 49.209152,222.74547 q 0.01999,0.6298 0.169946,1.08965 0.149953,0.44986 0.389877,0.67978 0.239924,0.21993 0.479847,0.3199 0.249921,0.09 0.519836,0.09 0.479847,0 0.829737,-0.23992 0.359885,-0.23992 0.719771,-0.80974 l 0.15995,0.07 q -0.309902,0.80974 -0.859728,1.2396 -0.549825,0.42987 -1.2596,0.42987 -0.859728,0 -1.369566,-0.59981 -0.499842,-0.60981 -0.499842,-1.63948 0,-1.10965 0.579817,-1.77944 0.589813,-0.67978 1.509521,-0.67978 0.759759,0 1.179626,0.45985 0.419867,0.44986 0.529832,1.36957 z m 0.01999,-0.3199 h 2.039353 q -0.09997,-0.6498 -0.309902,-0.89972 -0.209933,-0.24992 -0.669787,-0.24992 -0.899715,0 -1.059664,1.14964 z"
           id="path1021" />
        <path
           d="m 55.587111,221.89573 q -0.149952,0 -0.369882,-0.16994 -0.219931,-0.17994 -0.289908,-0.17994 -0.199937,0 -0.449858,0.2899 -0.249921,0.28991 -0.249921,0.52984 v 2.24928 q 0,0.42987 0.169947,0.57982 0.169946,0.14995 0.679784,0.16994 v 0.14996 h -2.399239 v -0.14996 q 0.479848,-0.09 0.589813,-0.19993 0.119962,-0.10997 0.119962,-0.48985 v -2.4992 q 0,-0.3299 -0.07997,-0.45986 -0.06998,-0.13995 -0.259917,-0.13995 -0.15995,0 -0.349889,0.04 v -0.15995 q 0.799746,-0.25991 1.47953,-0.53982 l 0.04998,0.02 v 0.91971 q 0.369883,-0.52983 0.629801,-0.72977 0.259917,-0.20993 0.569819,-0.20993 0.259918,0 0.399873,0.13995 0.149953,0.13996 0.149953,0.38988 0,0.20993 -0.109965,0.32989 -0.09997,0.11996 -0.279912,0.11996 z"
           id="path1023" />
        <path
           d="m 56.126933,221.53585 v -0.16995 q 0.739766,-0.21993 1.379563,-0.44985 l 0.06998,0.02 v 0.78975 q 0.509839,-0.47985 0.799747,-0.6398 0.299905,-0.16994 0.649794,-0.16994 0.549825,0 0.859727,0.39987 0.319899,0.38988 0.319899,1.09965 v 2.28927 q 0,0.36989 0.119962,0.49985 0.119962,0.11996 0.489844,0.15994 v 0.14996 h -2.07934 v -0.14996 q 0.379879,-0.03 0.499841,-0.19993 0.129959,-0.16995 0.129959,-0.6398 v -2.08934 q 0,-0.96969 -0.729769,-0.96969 -0.24992,0 -0.459854,0.11996 -0.209933,0.10997 -0.569819,0.44986 v 2.80911 q 0,0.26991 0.139956,0.37988 0.139955,0.10996 0.519835,0.13995 v 0.14996 h -2.119328 v -0.14996 q 0.379879,-0.03 0.499841,-0.16994 0.119962,-0.14995 0.119962,-0.57982 v -2.47921 q 0,-0.36988 -0.07997,-0.49984 -0.07998,-0.13996 -0.289908,-0.13996 -0.18994,0 -0.269915,0.04 z"
           id="path1025" />
        <path
           d="m 61.785121,222.74547 q 0.01999,0.6298 0.169946,1.08965 0.149952,0.44986 0.389876,0.67978 0.239924,0.21993 0.479848,0.3199 0.249921,0.09 0.519835,0.09 0.479848,0 0.829737,-0.23992 0.359886,-0.23992 0.719772,-0.80974 l 0.159949,0.07 q -0.309901,0.80974 -0.859727,1.2396 -0.549826,0.42987 -1.259601,0.42987 -0.859727,0 -1.369565,-0.59981 -0.499842,-0.60981 -0.499842,-1.63948 0,-1.10965 0.579816,-1.77944 0.589813,-0.67978 1.509522,-0.67978 0.759759,0 1.179626,0.45985 0.419866,0.44986 0.529832,1.36957 z m 0.01999,-0.3199 h 2.039353 q -0.09997,-0.6498 -0.309902,-0.89972 -0.209933,-0.24992 -0.669787,-0.24992 -0.899715,0 -1.059664,1.14964 z"
           id="path1027" />
        <path
           d="m 67.743213,221.01601 v 0.3199 h -1.00968 v 2.8591 q 0,0.46985 0.119962,0.68978 0.119962,0.20993 0.399874,0.20993 0.309901,0 0.599809,-0.34989 l 0.129959,0.10997 q -0.479848,0.75976 -1.199619,0.75976 -0.889718,0 -0.889718,-1.2696 v -3.00905 h -0.529832 q -0.03999,-0.03 -0.03999,-0.07 0,-0.05 0.02999,-0.08 0.02999,-0.03 0.109965,-0.08 0.08997,-0.06 0.209933,-0.14996 0.119962,-0.1 0.329896,-0.34989 0.209933,-0.24992 0.459854,-0.59981 0.159949,-0.22992 0.199937,-0.27991 0.06998,0 0.06998,0.12996 v 1.15963 z"
           id="path1029" />
      </g>
      <g
         aria-label="----------"
         transform="matrix(-2.1388739,-2.433323e-4,0.00111319,-0.46753562,0,0)"
         id="text499"
         style="font-size:10.579px;font-family:FreeSerif;-inkscape-font-specification:FreeSerif;text-align:center;text-anchor:middle;stroke:#b3b3b3;stroke-width:0.140566;stroke-linecap:round;stroke-linejoin:round;paint-order:fill markers stroke">
        <path
           d="m -41.854526,-102.54516 h 2.602435 v 0.66648 h -2.602435 z"
           id="path1032" />
        <path
           d="m -38.331737,-102.54516 h 2.602435 v 0.66648 h -2.602435 z"
           id="path1034" />
        <path
           d="m -34.808948,-102.54516 h 2.602435 v 0.66648 h -2.602435 z"
           id="path1036" />
        <path
           d="m -31.286159,-102.54516 h 2.602435 v 0.66648 h -2.602435 z"
           id="path1038" />
        <path
           d="m -27.76337,-102.54516 h 2.602435 v 0.66648 h -2.602435 z"
           id="path1040" />
        <path
           d="m -24.240581,-102.54516 h 2.602435 v 0.66648 h -2.602435 z"
           id="path1042" />
        <path
           d="m -20.717792,-102.54516 h 2.602435 v 0.66648 h -2.602435 z"
           id="path1044" />
        <path
           d="m -17.195003,-102.54516 h 2.602435 v 0.66648 h -2.602435 z"
           id="path1046" />
        <path
           d="m -13.672214,-102.54516 h 2.602435 v 0.66648 h -2.602435 z"
           id="path1048" />
        <path
           d="m -10.149425,-102.54516 h 2.6024346 v 0.66648 h -2.6024346 z"
           id="path1050" />
      </g>
      <g
         aria-label="----------"
         transform="matrix(-1.9060034,-2.73062e-4,9.9199323e-4,-0.52465789,0,0)"
         id="text499-3"
         style="font-size:11.8687px;font-family:FreeSerif;-inkscape-font-specification:FreeSerif;text-align:center;text-anchor:middle;stroke:#b3b3b3;stroke-width:0.157703;stroke-linecap:round;stroke-linejoin:round;paint-order:fill markers stroke">
        <path
           d="m -47.013021,-209.95893 h 2.919701 v 0.74773 h -2.919701 z"
           id="path1053" />
        <path
           d="m -43.060764,-209.95893 h 2.9197 v 0.74773 h -2.9197 z"
           id="path1055" />
        <path
           d="m -39.108507,-209.95893 h 2.9197 v 0.74773 h -2.9197 z"
           id="path1057" />
        <path
           d="m -35.156251,-209.95893 h 2.9197 v 0.74773 h -2.9197 z"
           id="path1059" />
        <path
           d="m -31.203994,-209.95893 h 2.9197 v 0.74773 h -2.9197 z"
           id="path1061" />
        <path
           d="m -27.251737,-209.95893 h 2.9197 v 0.74773 h -2.9197 z"
           id="path1063" />
        <path
           d="m -23.299482,-209.95893 h 2.919701 v 0.74773 h -2.919701 z"
           id="path1065" />
        <path
           d="m -19.347224,-209.95893 h 2.9197 v 0.74773 h -2.9197 z"
           id="path1067" />
        <path
           d="m -15.394967,-209.95893 h 2.9197 v 0.74773 h -2.9197 z"
           id="path1069" />
        <path
           d="m -11.442712,-209.95893 h 2.9197002 v 0.74773 h -2.9197002 z"
           id="path1071" />
      </g>
      <g
         aria-label="----------"
         transform="matrix(-1.9060034,-2.73062e-4,9.9199323e-4,-0.52465789,0,0)"
         id="text499-3-2"
         style="font-size:11.8687px;font-family:FreeSerif;-inkscape-font-specification:FreeSerif;text-align:center;text-anchor:middle;stroke:#b3b3b3;stroke-width:0.157703;stroke-linecap:round;stroke-linejoin:round;paint-order:fill markers stroke">
        <path
           d="m -47.088037,-354.09002 h 2.9197 v 0.74773 h -2.9197 z"
           id="path1074" />
        <path
           d="m -43.13578,-354.09002 h 2.9197 v 0.74773 h -2.9197 z"
           id="path1076" />
        <path
           d="m -39.183523,-354.09002 h 2.9197 v 0.74773 h -2.9197 z"
           id="path1078" />
        <path
           d="m -35.231267,-354.09002 h 2.9197 v 0.74773 h -2.9197 z"
           id="path1080" />
        <path
           d="m -31.27901,-354.09002 h 2.9197 v 0.74773 h -2.9197 z"
           id="path1082" />
        <path
           d="m -27.326753,-354.09002 h 2.9197 v 0.74773 h -2.9197 z"
           id="path1084" />
        <path
           d="m -23.374498,-354.09002 h 2.919701 v 0.74773 h -2.919701 z"
           id="path1086" />
        <path
           d="m -19.42224,-354.09002 h 2.9197 v 0.74773 h -2.9197 z"
           id="path1088" />
        <path
           d="m -15.469983,-354.09002 h 2.9197 v 0.74773 h -2.9197 z"
           id="path1090" />
        <path
           d="m -11.517728,-354.09002 h 2.9197002 v 0.74773 h -2.9197002 z"
           id="path1092" />
      </g>
      <g
         aria-label="----------"
         transform="matrix(-1.9060034,-2.73062e-4,9.9199323e-4,-0.52465789,0,0)"
         id="text499-3-02"
         style="font-size:11.8687px;font-family:FreeSerif;-inkscape-font-specification:FreeSerif;text-align:center;text-anchor:middle;stroke:#b3b3b3;stroke-width:0.157703;stroke-linecap:round;stroke-linejoin:round;paint-order:fill markers stroke">
        <path
           d="m -47.113019,-402.09295 h 2.9197 v 0.74773 h -2.9197 z"
           id="path1095" />
        <path
           d="m -43.160762,-402.09295 h 2.9197 v 0.74773 h -2.9197 z"
           id="path1097" />
        <path
           d="m -39.208506,-402.09295 h 2.9197 v 0.74773 h -2.9197 z"
           id="path1099" />
        <path
           d="m -35.25625,-402.09295 h 2.919701 v 0.74773 h -2.919701 z"
           id="path1101" />
        <path
           d="m -31.303992,-402.09295 h 2.9197 v 0.74773 h -2.9197 z"
           id="path1103" />
        <path
           d="m -27.351735,-402.09295 h 2.9197 v 0.74773 h -2.9197 z"
           id="path1105" />
        <path
           d="m -23.39948,-402.09295 h 2.9197 v 0.74773 h -2.9197 z"
           id="path1107" />
        <path
           d="m -19.447223,-402.09295 h 2.9197 v 0.74773 h -2.9197 z"
           id="path1109" />
        <path
           d="m -15.494966,-402.09295 h 2.9197 v 0.74773 h -2.9197 z"
           id="path1111" />
        <path
           d="m -11.54271,-402.09295 h 2.9196997 v 0.74773 H -11.54271 Z"
           id="path1113" />
      </g>
      <g
         aria-label="------------"
         transform="matrix(-1.1570235,-4.4982412e-4,6.0218093e-4,-0.86428644,0,0)"
         id="text499-3-0"
         style="font-size:22.5521px;font-family:FreeSerif;-inkscape-font-specification:FreeSerif;text-align:center;text-anchor:middle;stroke:#b3b3b3;stroke-width:0.299656;stroke-linecap:round;stroke-linejoin:round;paint-order:fill markers stroke">
        <path
           d="m -89.737637,-185.70522 h 5.547817 v 1.42078 h -5.547817 z"
           id="path1116" />
        <path
           d="m -82.227827,-185.70522 h 5.547817 v 1.42078 h -5.547817 z"
           id="path1118" />
        <path
           d="m -74.718017,-185.70522 h 5.547817 v 1.42078 h -5.547817 z"
           id="path1120" />
        <path
           d="m -67.208206,-185.70522 h 5.547816 v 1.42078 h -5.547816 z"
           id="path1122" />
        <path
           d="m -59.698397,-185.70522 h 5.547817 v 1.42078 h -5.547817 z"
           id="path1124" />
        <path
           d="m -52.188587,-185.70522 h 5.547816 v 1.42078 h -5.547816 z"
           id="path1126" />
        <path
           d="m -44.678776,-185.70522 h 5.547816 v 1.42078 h -5.547816 z"
           id="path1128" />
        <path
           d="m -37.168968,-185.70522 h 5.547816 v 1.42078 h -5.547816 z"
           id="path1130" />
        <path
           d="m -29.659157,-185.70522 h 5.547816 v 1.42078 h -5.547816 z"
           id="path1132" />
        <path
           d="m -22.149349,-185.70522 h 5.547816 v 1.42078 h -5.547816 z"
           id="path1134" />
        <path
           d="m -14.639538,-185.70522 h 5.5478164 v 1.42078 h -5.5478164 z"
           id="path1136" />
        <path
           d="m -7.1297266,-185.70522 h 5.5478164 v 1.42078 h -5.5478164 z"
           id="path1138" />
      </g>
      <g
         aria-label="------------"
         transform="matrix(-1.1570235,-4.4982412e-4,6.0218093e-4,-0.86428644,0,0)"
         id="text499-3-0-5"
         style="font-size:22.5521px;font-family:FreeSerif;-inkscape-font-specification:FreeSerif;text-align:center;text-anchor:middle;stroke:#b3b3b3;stroke-width:0.299656;stroke-linecap:round;stroke-linejoin:round;paint-order:fill markers stroke">
        <path
           d="m -89.721821,-155.31962 h 5.547816 v 1.42079 h -5.547816 z"
           id="path1141" />
        <path
           d="m -82.212011,-155.31962 h 5.547816 v 1.42079 h -5.547816 z"
           id="path1143" />
        <path
           d="m -74.702201,-155.31962 h 5.547816 v 1.42079 h -5.547816 z"
           id="path1145" />
        <path
           d="m -67.192391,-155.31962 h 5.547817 v 1.42079 h -5.547817 z"
           id="path1147" />
        <path
           d="m -59.682581,-155.31962 h 5.547816 v 1.42079 h -5.547816 z"
           id="path1149" />
        <path
           d="m -52.172772,-155.31962 h 5.547817 v 1.42079 h -5.547817 z"
           id="path1151" />
        <path
           d="m -44.66296,-155.31962 h 5.547816 v 1.42079 h -5.547816 z"
           id="path1153" />
        <path
           d="m -37.153153,-155.31962 h 5.547817 v 1.42079 h -5.547817 z"
           id="path1155" />
        <path
           d="m -29.643341,-155.31962 h 5.547816 v 1.42079 h -5.547816 z"
           id="path1157" />
        <path
           d="m -22.133534,-155.31962 h 5.547817 v 1.42079 h -5.547817 z"
           id="path1159" />
        <path
           d="m -14.623722,-155.31962 h 5.5478162 v 1.42079 h -5.5478162 z"
           id="path1161" />
        <path
           d="m -7.1139108,-155.31962 h 5.5478164 v 1.42079 h -5.5478164 z"
           id="path1163" />
      </g>
    </g>
  </g>
</svg>
